<svg width="183" height="48" viewBox="0 0 183 48" fill="none" xmlns="http://www.w3.org/2000/svg">
<path d="M1.9375 46V2.25H8.9375V46H1.9375ZM12.125 26.25V19.4375H16.3125C19.3542 19.4375 21 17.9583 21.25 15C21.25 14.75 21.25 14.5 21.25 14.25C20.9583 10.9583 19.3125 9.22917 16.3125 9.0625H12.125V2.25H16.875C24.4583 2.375 28.2708 6.33333 28.3125 14.125C28.3125 20.1667 26.3958 23.9375 22.5625 25.4375C20.9792 25.9792 19.0833 26.25 16.875 26.25C16.7917 26.25 15.2083 26.25 12.125 26.25ZM31.75 33.8125V13.25C31.75 11.0417 32.6875 8.79167 34.5625 6.5C37.0625 3.5 40.2292 1.97917 44.0625 1.9375V8.875C41.8958 8.91667 40.2708 10.0833 39.1875 12.375C38.8542 13.125 38.6875 13.75 38.6875 14.25V33.8125C38.6875 36.0625 39.8542 37.7292 42.1875 38.8125C42.8958 39.1458 43.5 39.3125 44 39.3125V46.3125C41.625 46.3125 39.25 45.4583 36.875 43.75C33.5 41.25 31.7917 37.9375 31.75 33.8125ZM47.4375 46.3125V39.3125C48.5208 39.3125 49.6458 38.8125 50.8125 37.8125C52.0625 36.6875 52.7083 35.3542 52.75 33.8125V14.25C52.75 13 52.2083 11.7917 51.125 10.625C50.0833 9.5 48.8542 8.91667 47.4375 8.875V1.9375C51.6458 1.9375 55.0208 3.75 57.5625 7.375C59.0208 9.45833 59.75 11.4167 59.75 13.25V33.8125C59.75 38.4375 57.6875 41.9792 53.5625 44.4375C51.3958 45.6875 49.3542 46.3125 47.4375 46.3125ZM64.75 46V2.25H71.75V46H64.75ZM74.9375 27.5625V21.3125H78.4375C82.0625 21.3125 84.0625 19.5833 84.4375 16.125C84.4792 15.75 84.5 15.3958 84.5 15.0625C84.5 11.5625 82.9167 9.5 79.75 8.875C79.1667 8.79167 78.5625 8.75 77.9375 8.75H74.9375V2.25H78.75C84.2917 2.375 88.0208 4.4375 89.9375 8.4375C90.7292 10.1042 91.125 12.0208 91.125 14.1875C91.0833 18.8125 89.6667 22.1667 86.875 24.25C89.0417 25.5 90.4167 27.7292 91 30.9375C91.0833 31.4792 91.1458 31.9792 91.1875 32.4375L92.25 46H85.75L84.8125 34.875C84.4792 31.375 83.5417 29.1667 82 28.25C81.0833 27.7917 79.9375 27.5625 78.5625 27.5625H74.9375ZM94.75 9.0625V2.25H121.812V9.0625H111.812V46H104.812V9.0625H94.75ZM125.438 46V2.25H148.188V9.125H132.438V20.75H142.312V27.75H132.438V39.0625H148.188V46H125.438ZM153.25 46V13.375H153.75L160.25 23.8125V46H153.25ZM153.25 6.75V2.25H159.062L181.062 37.5625V46H177.688L153.25 6.75ZM174.062 20.5V2.25H181.062V30.9375H180.562L174.062 20.5Z" fill="white"/>
<path d="M1.9375 46H0.9375V47H1.9375V46ZM1.9375 2.25V1.25H0.9375V2.25H1.9375ZM8.9375 2.25H9.9375V1.25H8.9375V2.25ZM8.9375 46V47H9.9375V46H8.9375ZM12.125 26.25H11.125V27.25H12.125V26.25ZM12.125 19.4375V18.4375H11.125V19.4375H12.125ZM21.25 15L22.2464 15.0842L22.25 15.0422V15H21.25ZM21.25 14.25H22.25V14.2058L22.2461 14.1617L21.25 14.25ZM16.3125 9.0625L16.368 8.06404L16.3403 8.0625H16.3125V9.0625ZM12.125 9.0625H11.125V10.0625H12.125V9.0625ZM12.125 2.25V1.25H11.125V2.25H12.125ZM16.875 2.25L16.8915 1.25014L16.8832 1.25H16.875V2.25ZM28.3125 14.125L29.3125 14.125L29.3125 14.1197L28.3125 14.125ZM22.5625 25.4375L22.8862 26.3837L22.9067 26.3766L22.9269 26.3687L22.5625 25.4375ZM2.9375 46V2.25H0.9375V46H2.9375ZM1.9375 3.25H8.9375V1.25H1.9375V3.25ZM7.9375 2.25V46H9.9375V2.25H7.9375ZM8.9375 45H1.9375V47H8.9375V45ZM13.125 26.25V19.4375H11.125V26.25H13.125ZM12.125 20.4375H16.3125V18.4375H12.125V20.4375ZM16.3125 20.4375C17.9872 20.4375 19.431 20.0295 20.4966 19.0719C21.5658 18.1109 22.1075 16.7285 22.2464 15.0842L20.2536 14.9158C20.1425 16.2299 19.7363 17.0662 19.1597 17.5844C18.5794 18.1059 17.6795 18.4375 16.3125 18.4375V20.4375ZM22.25 15C22.25 14.9995 22.25 14.999 22.25 14.9985C22.25 14.998 22.25 14.9976 22.25 14.9971C22.25 14.9966 22.25 14.9961 22.25 14.9956C22.25 14.9951 22.25 14.9946 22.25 14.9941C22.25 14.9937 22.25 14.9932 22.25 14.9927C22.25 14.9922 22.25 14.9917 22.25 14.9912C22.25 14.9907 22.25 14.9902 22.25 14.9897C22.25 14.9893 22.25 14.9888 22.25 14.9883C22.25 14.9878 22.25 14.9873 22.25 14.9868C22.25 14.9863 22.25 14.9858 22.25 14.9854C22.25 14.9849 22.25 14.9844 22.25 14.9839C22.25 14.9834 22.25 14.9829 22.25 14.9824C22.25 14.9819 22.25 14.9814 22.25 14.981C22.25 14.9805 22.25 14.98 22.25 14.9795C22.25 14.979 22.25 14.9785 22.25 14.978C22.25 14.9775 22.25 14.9771 22.25 14.9766C22.25 14.9761 22.25 14.9756 22.25 14.9751C22.25 14.9746 22.25 14.9741 22.25 14.9736C22.25 14.9731 22.25 14.9727 22.25 14.9722C22.25 14.9717 22.25 14.9712 22.25 14.9707C22.25 14.9702 22.25 14.9697 22.25 14.9692C22.25 14.9688 22.25 14.9683 22.25 14.9678C22.25 14.9673 22.25 14.9668 22.25 14.9663C22.25 14.9658 22.25 14.9653 22.25 14.9648C22.25 14.9644 22.25 14.9639 22.25 14.9634C22.25 14.9629 22.25 14.9624 22.25 14.9619C22.25 14.9614 22.25 14.9609 22.25 14.9604C22.25 14.96 22.25 14.9595 22.25 14.959C22.25 14.9585 22.25 14.958 22.25 14.9575C22.25 14.957 22.25 14.9565 22.25 14.9561C22.25 14.9556 22.25 14.9551 22.25 14.9546C22.25 14.9541 22.25 14.9536 22.25 14.9531C22.25 14.9526 22.25 14.9521 22.25 14.9517C22.25 14.9512 22.25 14.9507 22.25 14.9502C22.25 14.9497 22.25 14.9492 22.25 14.9487C22.25 14.9482 22.25 14.9478 22.25 14.9473C22.25 14.9468 22.25 14.9463 22.25 14.9458C22.25 14.9453 22.25 14.9448 22.25 14.9443C22.25 14.9438 22.25 14.9434 22.25 14.9429C22.25 14.9424 22.25 14.9419 22.25 14.9414C22.25 14.9409 22.25 14.9404 22.25 14.9399C22.25 14.9395 22.25 14.939 22.25 14.9385C22.25 14.938 22.25 14.9375 22.25 14.937C22.25 14.9365 22.25 14.936 22.25 14.9355C22.25 14.9351 22.25 14.9346 22.25 14.9341C22.25 14.9336 22.25 14.9331 22.25 14.9326C22.25 14.9321 22.25 14.9316 22.25 14.9312C22.25 14.9307 22.25 14.9302 22.25 14.9297C22.25 14.9292 22.25 14.9287 22.25 14.9282C22.25 14.9277 22.25 14.9272 22.25 14.9268C22.25 14.9263 22.25 14.9258 22.25 14.9253C22.25 14.9248 22.25 14.9243 22.25 14.9238C22.25 14.9233 22.25 14.9229 22.25 14.9224C22.25 14.9219 22.25 14.9214 22.25 14.9209C22.25 14.9204 22.25 14.9199 22.25 14.9194C22.25 14.9189 22.25 14.9185 22.25 14.918C22.25 14.9175 22.25 14.917 22.25 14.9165C22.25 14.916 22.25 14.9155 22.25 14.915C22.25 14.9146 22.25 14.9141 22.25 14.9136C22.25 14.9131 22.25 14.9126 22.25 14.9121C22.25 14.9116 22.25 14.9111 22.25 14.9106C22.25 14.9102 22.25 14.9097 22.25 14.9092C22.25 14.9087 22.25 14.9082 22.25 14.9077C22.25 14.9072 22.25 14.9067 22.25 14.9062C22.25 14.9058 22.25 14.9053 22.25 14.9048C22.25 14.9043 22.25 14.9038 22.25 14.9033C22.25 14.9028 22.25 14.9023 22.25 14.9019C22.25 14.9014 22.25 14.9009 22.25 14.9004C22.25 14.8999 22.25 14.8994 22.25 14.8989C22.25 14.8984 22.25 14.8979 22.25 14.8975C22.25 14.897 22.25 14.8965 22.25 14.896C22.25 14.8955 22.25 14.895 22.25 14.8945C22.25 14.894 22.25 14.8936 22.25 14.8931C22.25 14.8926 22.25 14.8921 22.25 14.8916C22.25 14.8911 22.25 14.8906 22.25 14.8901C22.25 14.8896 22.25 14.8892 22.25 14.8887C22.25 14.8882 22.25 14.8877 22.25 14.8872C22.25 14.8867 22.25 14.8862 22.25 14.8857C22.25 14.8853 22.25 14.8848 22.25 14.8843C22.25 14.8838 22.25 14.8833 22.25 14.8828C22.25 14.8823 22.25 14.8818 22.25 14.8813C22.25 14.8809 22.25 14.8804 22.25 14.8799C22.25 14.8794 22.25 14.8789 22.25 14.8784C22.25 14.8779 22.25 14.8774 22.25 14.877C22.25 14.8765 22.25 14.876 22.25 14.8755C22.25 14.875 22.25 14.8745 22.25 14.874C22.25 14.8735 22.25 14.873 22.25 14.8726C22.25 14.8721 22.25 14.8716 22.25 14.8711C22.25 14.8706 22.25 14.8701 22.25 14.8696C22.25 14.8691 22.25 14.8687 22.25 14.8682C22.25 14.8677 22.25 14.8672 22.25 14.8667C22.25 14.8662 22.25 14.8657 22.25 14.8652C22.25 14.8647 22.25 14.8643 22.25 14.8638C22.25 14.8633 22.25 14.8628 22.25 14.8623C22.25 14.8618 22.25 14.8613 22.25 14.8608C22.25 14.8604 22.25 14.8599 22.25 14.8594C22.25 14.8589 22.25 14.8584 22.25 14.8579C22.25 14.8574 22.25 14.8569 22.25 14.8564C22.25 14.856 22.25 14.8555 22.25 14.855C22.25 14.8545 22.25 14.854 22.25 14.8535C22.25 14.853 22.25 14.8525 22.25 14.8521C22.25 14.8516 22.25 14.8511 22.25 14.8506C22.25 14.8501 22.25 14.8496 22.25 14.8491C22.25 14.8486 22.25 14.8481 22.25 14.8477C22.25 14.8472 22.25 14.8467 22.25 14.8462C22.25 14.8457 22.25 14.8452 22.25 14.8447C22.25 14.8442 22.25 14.8438 22.25 14.8433C22.25 14.8428 22.25 14.8423 22.25 14.8418C22.25 14.8413 22.25 14.8408 22.25 14.8403C22.25 14.8398 22.25 14.8394 22.25 14.8389C22.25 14.8384 22.25 14.8379 22.25 14.8374C22.25 14.8369 22.25 14.8364 22.25 14.8359C22.25 14.8354 22.25 14.835 22.25 14.8345C22.25 14.834 22.25 14.8335 22.25 14.833C22.25 14.8325 22.25 14.832 22.25 14.8315C22.25 14.8311 22.25 14.8306 22.25 14.8301C22.25 14.8296 22.25 14.8291 22.25 14.8286C22.25 14.8281 22.25 14.8276 22.25 14.8271C22.25 14.8267 22.25 14.8262 22.25 14.8257C22.25 14.8252 22.25 14.8247 22.25 14.8242C22.25 14.8237 22.25 14.8232 22.25 14.8228C22.25 14.8223 22.25 14.8218 22.25 14.8213C22.25 14.8208 22.25 14.8203 22.25 14.8198C22.25 14.8193 22.25 14.8188 22.25 14.8184C22.25 14.8179 22.25 14.8174 22.25 14.8169C22.25 14.8164 22.25 14.8159 22.25 14.8154C22.25 14.8149 22.25 14.8145 22.25 14.814C22.25 14.8135 22.25 14.813 22.25 14.8125C22.25 14.812 22.25 14.8115 22.25 14.811C22.25 14.8105 22.25 14.8101 22.25 14.8096C22.25 14.8091 22.25 14.8086 22.25 14.8081C22.25 14.8076 22.25 14.8071 22.25 14.8066C22.25 14.8062 22.25 14.8057 22.25 14.8052C22.25 14.8047 22.25 14.8042 22.25 14.8037C22.25 14.8032 22.25 14.8027 22.25 14.8022C22.25 14.8018 22.25 14.8013 22.25 14.8008C22.25 14.8003 22.25 14.7998 22.25 14.7993C22.25 14.7988 22.25 14.7983 22.25 14.7979C22.25 14.7974 22.25 14.7969 22.25 14.7964C22.25 14.7959 22.25 14.7954 22.25 14.7949C22.25 14.7944 22.25 14.7939 22.25 14.7935C22.25 14.793 22.25 14.7925 22.25 14.792C22.25 14.7915 22.25 14.791 22.25 14.7905C22.25 14.79 22.25 14.7896 22.25 14.7891C22.25 14.7886 22.25 14.7881 22.25 14.7876C22.25 14.7871 22.25 14.7866 22.25 14.7861C22.25 14.7856 22.25 14.7852 22.25 14.7847C22.25 14.7842 22.25 14.7837 22.25 14.7832C22.25 14.7827 22.25 14.7822 22.25 14.7817C22.25 14.7812 22.25 14.7808 22.25 14.7803C22.25 14.7798 22.25 14.7793 22.25 14.7788C22.25 14.7783 22.25 14.7778 22.25 14.7773C22.25 14.7769 22.25 14.7764 22.25 14.7759C22.25 14.7754 22.25 14.7749 22.25 14.7744C22.25 14.7739 22.25 14.7734 22.25 14.7729C22.25 14.7725 22.25 14.772 22.25 14.7715C22.25 14.771 22.25 14.7705 22.25 14.77C22.25 14.7695 22.25 14.769 22.25 14.7686C22.25 14.7681 22.25 14.7676 22.25 14.7671C22.25 14.7666 22.25 14.7661 22.25 14.7656C22.25 14.7651 22.25 14.7646 22.25 14.7642C22.25 14.7637 22.25 14.7632 22.25 14.7627C22.25 14.7622 22.25 14.7617 22.25 14.7612C22.25 14.7607 22.25 14.7603 22.25 14.7598C22.25 14.7593 22.25 14.7588 22.25 14.7583C22.25 14.7578 22.25 14.7573 22.25 14.7568C22.25 14.7563 22.25 14.7559 22.25 14.7554C22.25 14.7549 22.25 14.7544 22.25 14.7539C22.25 14.7534 22.25 14.7529 22.25 14.7524C22.25 14.752 22.25 14.7515 22.25 14.751C22.25 14.7505 22.25 14.75 22.25 14.7495C22.25 14.749 22.25 14.7485 22.25 14.748C22.25 14.7476 22.25 14.7471 22.25 14.7466C22.25 14.7461 22.25 14.7456 22.25 14.7451C22.25 14.7446 22.25 14.7441 22.25 14.7437C22.25 14.7432 22.25 14.7427 22.25 14.7422C22.25 14.7417 22.25 14.7412 22.25 14.7407C22.25 14.7402 22.25 14.7397 22.25 14.7393C22.25 14.7388 22.25 14.7383 22.25 14.7378C22.25 14.7373 22.25 14.7368 22.25 14.7363C22.25 14.7358 22.25 14.7354 22.25 14.7349C22.25 14.7344 22.25 14.7339 22.25 14.7334C22.25 14.7329 22.25 14.7324 22.25 14.7319C22.25 14.7314 22.25 14.731 22.25 14.7305C22.25 14.73 22.25 14.7295 22.25 14.729C22.25 14.7285 22.25 14.728 22.25 14.7275C22.25 14.7271 22.25 14.7266 22.25 14.7261C22.25 14.7256 22.25 14.7251 22.25 14.7246C22.25 14.7241 22.25 14.7236 22.25 14.7231C22.25 14.7227 22.25 14.7222 22.25 14.7217C22.25 14.7212 22.25 14.7207 22.25 14.7202C22.25 14.7197 22.25 14.7192 22.25 14.7188C22.25 14.7183 22.25 14.7178 22.25 14.7173C22.25 14.7168 22.25 14.7163 22.25 14.7158C22.25 14.7153 22.25 14.7148 22.25 14.7144C22.25 14.7139 22.25 14.7134 22.25 14.7129C22.25 14.7124 22.25 14.7119 22.25 14.7114C22.25 14.7109 22.25 14.7104 22.25 14.71C22.25 14.7095 22.25 14.709 22.25 14.7085C22.25 14.708 22.25 14.7075 22.25 14.707C22.25 14.7065 22.25 14.7061 22.25 14.7056C22.25 14.7051 22.25 14.7046 22.25 14.7041C22.25 14.7036 22.25 14.7031 22.25 14.7026C22.25 14.7021 22.25 14.7017 22.25 14.7012C22.25 14.7007 22.25 14.7002 22.25 14.6997C22.25 14.6992 22.25 14.6987 22.25 14.6982C22.25 14.6978 22.25 14.6973 22.25 14.6968C22.25 14.6963 22.25 14.6958 22.25 14.6953C22.25 14.6948 22.25 14.6943 22.25 14.6938C22.25 14.6934 22.25 14.6929 22.25 14.6924C22.25 14.6919 22.25 14.6914 22.25 14.6909C22.25 14.6904 22.25 14.6899 22.25 14.6895C22.25 14.689 22.25 14.6885 22.25 14.688C22.25 14.6875 22.25 14.687 22.25 14.6865C22.25 14.686 22.25 14.6855 22.25 14.6851C22.25 14.6846 22.25 14.6841 22.25 14.6836C22.25 14.6831 22.25 14.6826 22.25 14.6821C22.25 14.6816 22.25 14.6812 22.25 14.6807C22.25 14.6802 22.25 14.6797 22.25 14.6792C22.25 14.6787 22.25 14.6782 22.25 14.6777C22.25 14.6772 22.25 14.6768 22.25 14.6763C22.25 14.6758 22.25 14.6753 22.25 14.6748C22.25 14.6743 22.25 14.6738 22.25 14.6733C22.25 14.6729 22.25 14.6724 22.25 14.6719C22.25 14.6714 22.25 14.6709 22.25 14.6704C22.25 14.6699 22.25 14.6694 22.25 14.6689C22.25 14.6685 22.25 14.668 22.25 14.6675C22.25 14.667 22.25 14.6665 22.25 14.666C22.25 14.6655 22.25 14.665 22.25 14.6646C22.25 14.6641 22.25 14.6636 22.25 14.6631C22.25 14.6626 22.25 14.6621 22.25 14.6616C22.25 14.6611 22.25 14.6606 22.25 14.6602C22.25 14.6597 22.25 14.6592 22.25 14.6587C22.25 14.6582 22.25 14.6577 22.25 14.6572C22.25 14.6567 22.25 14.6562 22.25 14.6558C22.25 14.6553 22.25 14.6548 22.25 14.6543C22.25 14.6538 22.25 14.6533 22.25 14.6528C22.25 14.6523 22.25 14.6519 22.25 14.6514C22.25 14.6509 22.25 14.6504 22.25 14.6499C22.25 14.6494 22.25 14.6489 22.25 14.6484C22.25 14.6479 22.25 14.6475 22.25 14.647C22.25 14.6465 22.25 14.646 22.25 14.6455C22.25 14.645 22.25 14.6445 22.25 14.644C22.25 14.6436 22.25 14.6431 22.25 14.6426C22.25 14.6421 22.25 14.6416 22.25 14.6411C22.25 14.6406 22.25 14.6401 22.25 14.6396C22.25 14.6392 22.25 14.6387 22.25 14.6382C22.25 14.6377 22.25 14.6372 22.25 14.6367C22.25 14.6362 22.25 14.6357 22.25 14.6353C22.25 14.6348 22.25 14.6343 22.25 14.6338C22.25 14.6333 22.25 14.6328 22.25 14.6323C22.25 14.6318 22.25 14.6313 22.25 14.6309C22.25 14.6304 22.25 14.6299 22.25 14.6294C22.25 14.6289 22.25 14.6284 22.25 14.6279C22.25 14.6274 22.25 14.627 22.25 14.6265C22.25 14.626 22.25 14.6255 22.25 14.625C22.25 14.6245 22.25 14.624 22.25 14.6235C22.25 14.623 22.25 14.6226 22.25 14.6221C22.25 14.6216 22.25 14.6211 22.25 14.6206C22.25 14.6201 22.25 14.6196 22.25 14.6191C22.25 14.6187 22.25 14.6182 22.25 14.6177C22.25 14.6172 22.25 14.6167 22.25 14.6162C22.25 14.6157 22.25 14.6152 22.25 14.6147C22.25 14.6143 22.25 14.6138 22.25 14.6133C22.25 14.6128 22.25 14.6123 22.25 14.6118C22.25 14.6113 22.25 14.6108 22.25 14.6104C22.25 14.6099 22.25 14.6094 22.25 14.6089C22.25 14.6084 22.25 14.6079 22.25 14.6074C22.25 14.6069 22.25 14.6064 22.25 14.606C22.25 14.6055 22.25 14.605 22.25 14.6045C22.25 14.604 22.25 14.6035 22.25 14.603C22.25 14.6025 22.25 14.6021 22.25 14.6016C22.25 14.6011 22.25 14.6006 22.25 14.6001C22.25 14.5996 22.25 14.5991 22.25 14.5986C22.25 14.5981 22.25 14.5977 22.25 14.5972C22.25 14.5967 22.25 14.5962 22.25 14.5957C22.25 14.5952 22.25 14.5947 22.25 14.5942C22.25 14.5938 22.25 14.5933 22.25 14.5928C22.25 14.5923 22.25 14.5918 22.25 14.5913C22.25 14.5908 22.25 14.5903 22.25 14.5898C22.25 14.5894 22.25 14.5889 22.25 14.5884C22.25 14.5879 22.25 14.5874 22.25 14.5869C22.25 14.5864 22.25 14.5859 22.25 14.5854C22.25 14.585 22.25 14.5845 22.25 14.584C22.25 14.5835 22.25 14.583 22.25 14.5825C22.25 14.582 22.25 14.5815 22.25 14.5811C22.25 14.5806 22.25 14.5801 22.25 14.5796C22.25 14.5791 22.25 14.5786 22.25 14.5781C22.25 14.5776 22.25 14.5771 22.25 14.5767C22.25 14.5762 22.25 14.5757 22.25 14.5752C22.25 14.5747 22.25 14.5742 22.25 14.5737C22.25 14.5732 22.25 14.5728 22.25 14.5723C22.25 14.5718 22.25 14.5713 22.25 14.5708C22.25 14.5703 22.25 14.5698 22.25 14.5693C22.25 14.5688 22.25 14.5684 22.25 14.5679C22.25 14.5674 22.25 14.5669 22.25 14.5664C22.25 14.5659 22.25 14.5654 22.25 14.5649C22.25 14.5645 22.25 14.564 22.25 14.5635C22.25 14.563 22.25 14.5625 22.25 14.562C22.25 14.5615 22.25 14.561 22.25 14.5605C22.25 14.5601 22.25 14.5596 22.25 14.5591C22.25 14.5586 22.25 14.5581 22.25 14.5576C22.25 14.5571 22.25 14.5566 22.25 14.5562C22.25 14.5557 22.25 14.5552 22.25 14.5547C22.25 14.5542 22.25 14.5537 22.25 14.5532C22.25 14.5527 22.25 14.5522 22.25 14.5518C22.25 14.5513 22.25 14.5508 22.25 14.5503C22.25 14.5498 22.25 14.5493 22.25 14.5488C22.25 14.5483 22.25 14.5479 22.25 14.5474C22.25 14.5469 22.25 14.5464 22.25 14.5459C22.25 14.5454 22.25 14.5449 22.25 14.5444C22.25 14.5439 22.25 14.5435 22.25 14.543C22.25 14.5425 22.25 14.542 22.25 14.5415C22.25 14.541 22.25 14.5405 22.25 14.54C22.25 14.5396 22.25 14.5391 22.25 14.5386C22.25 14.5381 22.25 14.5376 22.25 14.5371C22.25 14.5366 22.25 14.5361 22.25 14.5356C22.25 14.5352 22.25 14.5347 22.25 14.5342C22.25 14.5337 22.25 14.5332 22.25 14.5327C22.25 14.5322 22.25 14.5317 22.25 14.5312C22.25 14.5308 22.25 14.5303 22.25 14.5298C22.25 14.5293 22.25 14.5288 22.25 14.5283C22.25 14.5278 22.25 14.5273 22.25 14.5269C22.25 14.5264 22.25 14.5259 22.25 14.5254C22.25 14.5249 22.25 14.5244 22.25 14.5239C22.25 14.5234 22.25 14.5229 22.25 14.5225C22.25 14.522 22.25 14.5215 22.25 14.521C22.25 14.5205 22.25 14.52 22.25 14.5195C22.25 14.519 22.25 14.5186 22.25 14.5181C22.25 14.5176 22.25 14.5171 22.25 14.5166C22.25 14.5161 22.25 14.5156 22.25 14.5151C22.25 14.5146 22.25 14.5142 22.25 14.5137C22.25 14.5132 22.25 14.5127 22.25 14.5122C22.25 14.5117 22.25 14.5112 22.25 14.5107C22.25 14.5103 22.25 14.5098 22.25 14.5093C22.25 14.5088 22.25 14.5083 22.25 14.5078C22.25 14.5073 22.25 14.5068 22.25 14.5063C22.25 14.5059 22.25 14.5054 22.25 14.5049C22.25 14.5044 22.25 14.5039 22.25 14.5034C22.25 14.5029 22.25 14.5024 22.25 14.502C22.25 14.5015 22.25 14.501 22.25 14.5005C22.25 14.5 22.25 14.4995 22.25 14.499C22.25 14.4985 22.25 14.498 22.25 14.4976C22.25 14.4971 22.25 14.4966 22.25 14.4961C22.25 14.4956 22.25 14.4951 22.25 14.4946C22.25 14.4941 22.25 14.4937 22.25 14.4932C22.25 14.4927 22.25 14.4922 22.25 14.4917C22.25 14.4912 22.25 14.4907 22.25 14.4902C22.25 14.4897 22.25 14.4893 22.25 14.4888C22.25 14.4883 22.25 14.4878 22.25 14.4873C22.25 14.4868 22.25 14.4863 22.25 14.4858C22.25 14.4854 22.25 14.4849 22.25 14.4844C22.25 14.4839 22.25 14.4834 22.25 14.4829C22.25 14.4824 22.25 14.4819 22.25 14.4814C22.25 14.481 22.25 14.4805 22.25 14.48C22.25 14.4795 22.25 14.479 22.25 14.4785C22.25 14.478 22.25 14.4775 22.25 14.4771C22.25 14.4766 22.25 14.4761 22.25 14.4756C22.25 14.4751 22.25 14.4746 22.25 14.4741C22.25 14.4736 22.25 14.4731 22.25 14.4727C22.25 14.4722 22.25 14.4717 22.25 14.4712C22.25 14.4707 22.25 14.4702 22.25 14.4697C22.25 14.4692 22.25 14.4688 22.25 14.4683C22.25 14.4678 22.25 14.4673 22.25 14.4668C22.25 14.4663 22.25 14.4658 22.25 14.4653C22.25 14.4648 22.25 14.4644 22.25 14.4639C22.25 14.4634 22.25 14.4629 22.25 14.4624C22.25 14.4619 22.25 14.4614 22.25 14.4609C22.25 14.4604 22.25 14.46 22.25 14.4595C22.25 14.459 22.25 14.4585 22.25 14.458C22.25 14.4575 22.25 14.457 22.25 14.4565C22.25 14.4561 22.25 14.4556 22.25 14.4551C22.25 14.4546 22.25 14.4541 22.25 14.4536C22.25 14.4531 22.25 14.4526 22.25 14.4521C22.25 14.4517 22.25 14.4512 22.25 14.4507C22.25 14.4502 22.25 14.4497 22.25 14.4492C22.25 14.4487 22.25 14.4482 22.25 14.4478C22.25 14.4473 22.25 14.4468 22.25 14.4463C22.25 14.4458 22.25 14.4453 22.25 14.4448C22.25 14.4443 22.25 14.4438 22.25 14.4434C22.25 14.4429 22.25 14.4424 22.25 14.4419C22.25 14.4414 22.25 14.4409 22.25 14.4404C22.25 14.4399 22.25 14.4395 22.25 14.439C22.25 14.4385 22.25 14.438 22.25 14.4375C22.25 14.437 22.25 14.4365 22.25 14.436C22.25 14.4355 22.25 14.4351 22.25 14.4346C22.25 14.4341 22.25 14.4336 22.25 14.4331C22.25 14.4326 22.25 14.4321 22.25 14.4316C22.25 14.4312 22.25 14.4307 22.25 14.4302C22.25 14.4297 22.25 14.4292 22.25 14.4287C22.25 14.4282 22.25 14.4277 22.25 14.4272C22.25 14.4268 22.25 14.4263 22.25 14.4258C22.25 14.4253 22.25 14.4248 22.25 14.4243C22.25 14.4238 22.25 14.4233 22.25 14.4229C22.25 14.4224 22.25 14.4219 22.25 14.4214C22.25 14.4209 22.25 14.4204 22.25 14.4199C22.25 14.4194 22.25 14.4189 22.25 14.4185C22.25 14.418 22.25 14.4175 22.25 14.417C22.25 14.4165 22.25 14.416 22.25 14.4155C22.25 14.415 22.25 14.4146 22.25 14.4141C22.25 14.4136 22.25 14.4131 22.25 14.4126C22.25 14.4121 22.25 14.4116 22.25 14.4111C22.25 14.4106 22.25 14.4102 22.25 14.4097C22.25 14.4092 22.25 14.4087 22.25 14.4082C22.25 14.4077 22.25 14.4072 22.25 14.4067C22.25 14.4062 22.25 14.4058 22.25 14.4053C22.25 14.4048 22.25 14.4043 22.25 14.4038C22.25 14.4033 22.25 14.4028 22.25 14.4023C22.25 14.4019 22.25 14.4014 22.25 14.4009C22.25 14.4004 22.25 14.3999 22.25 14.3994C22.25 14.3989 22.25 14.3984 22.25 14.3979C22.25 14.3975 22.25 14.397 22.25 14.3965C22.25 14.396 22.25 14.3955 22.25 14.395C22.25 14.3945 22.25 14.394 22.25 14.3936C22.25 14.3931 22.25 14.3926 22.25 14.3921C22.25 14.3916 22.25 14.3911 22.25 14.3906C22.25 14.3901 22.25 14.3896 22.25 14.3892C22.25 14.3887 22.25 14.3882 22.25 14.3877C22.25 14.3872 22.25 14.3867 22.25 14.3862C22.25 14.3857 22.25 14.3853 22.25 14.3848C22.25 14.3843 22.25 14.3838 22.25 14.3833C22.25 14.3828 22.25 14.3823 22.25 14.3818C22.25 14.3813 22.25 14.3809 22.25 14.3804C22.25 14.3799 22.25 14.3794 22.25 14.3789C22.25 14.3784 22.25 14.3779 22.25 14.3774C22.25 14.377 22.25 14.3765 22.25 14.376C22.25 14.3755 22.25 14.375 22.25 14.3745C22.25 14.374 22.25 14.3735 22.25 14.373C22.25 14.3726 22.25 14.3721 22.25 14.3716C22.25 14.3711 22.25 14.3706 22.25 14.3701C22.25 14.3696 22.25 14.3691 22.25 14.3687C22.25 14.3682 22.25 14.3677 22.25 14.3672C22.25 14.3667 22.25 14.3662 22.25 14.3657C22.25 14.3652 22.25 14.3647 22.25 14.3643C22.25 14.3638 22.25 14.3633 22.25 14.3628C22.25 14.3623 22.25 14.3618 22.25 14.3613C22.25 14.3608 22.25 14.3604 22.25 14.3599C22.25 14.3594 22.25 14.3589 22.25 14.3584C22.25 14.3579 22.25 14.3574 22.25 14.3569C22.25 14.3564 22.25 14.356 22.25 14.3555C22.25 14.355 22.25 14.3545 22.25 14.354C22.25 14.3535 22.25 14.353 22.25 14.3525C22.25 14.3521 22.25 14.3516 22.25 14.3511C22.25 14.3506 22.25 14.3501 22.25 14.3496C22.25 14.3491 22.25 14.3486 22.25 14.3481C22.25 14.3477 22.25 14.3472 22.25 14.3467C22.25 14.3462 22.25 14.3457 22.25 14.3452C22.25 14.3447 22.25 14.3442 22.25 14.3438C22.25 14.3433 22.25 14.3428 22.25 14.3423C22.25 14.3418 22.25 14.3413 22.25 14.3408C22.25 14.3403 22.25 14.3398 22.25 14.3394C22.25 14.3389 22.25 14.3384 22.25 14.3379C22.25 14.3374 22.25 14.3369 22.25 14.3364C22.25 14.3359 22.25 14.3354 22.25 14.335C22.25 14.3345 22.25 14.334 22.25 14.3335C22.25 14.333 22.25 14.3325 22.25 14.332C22.25 14.3315 22.25 14.3311 22.25 14.3306C22.25 14.3301 22.25 14.3296 22.25 14.3291C22.25 14.3286 22.25 14.3281 22.25 14.3276C22.25 14.3271 22.25 14.3267 22.25 14.3262C22.25 14.3257 22.25 14.3252 22.25 14.3247C22.25 14.3242 22.25 14.3237 22.25 14.3232C22.25 14.3228 22.25 14.3223 22.25 14.3218C22.25 14.3213 22.25 14.3208 22.25 14.3203C22.25 14.3198 22.25 14.3193 22.25 14.3188C22.25 14.3184 22.25 14.3179 22.25 14.3174C22.25 14.3169 22.25 14.3164 22.25 14.3159C22.25 14.3154 22.25 14.3149 22.25 14.3145C22.25 14.314 22.25 14.3135 22.25 14.313C22.25 14.3125 22.25 14.312 22.25 14.3115C22.25 14.311 22.25 14.3105 22.25 14.3101C22.25 14.3096 22.25 14.3091 22.25 14.3086C22.25 14.3081 22.25 14.3076 22.25 14.3071C22.25 14.3066 22.25 14.3062 22.25 14.3057C22.25 14.3052 22.25 14.3047 22.25 14.3042C22.25 14.3037 22.25 14.3032 22.25 14.3027C22.25 14.3022 22.25 14.3018 22.25 14.3013C22.25 14.3008 22.25 14.3003 22.25 14.2998C22.25 14.2993 22.25 14.2988 22.25 14.2983C22.25 14.2979 22.25 14.2974 22.25 14.2969C22.25 14.2964 22.25 14.2959 22.25 14.2954C22.25 14.2949 22.25 14.2944 22.25 14.2939C22.25 14.2935 22.25 14.293 22.25 14.2925C22.25 14.292 22.25 14.2915 22.25 14.291C22.25 14.2905 22.25 14.29 22.25 14.2896C22.25 14.2891 22.25 14.2886 22.25 14.2881C22.25 14.2876 22.25 14.2871 22.25 14.2866C22.25 14.2861 22.25 14.2856 22.25 14.2852C22.25 14.2847 22.25 14.2842 22.25 14.2837C22.25 14.2832 22.25 14.2827 22.25 14.2822C22.25 14.2817 22.25 14.2812 22.25 14.2808C22.25 14.2803 22.25 14.2798 22.25 14.2793C22.25 14.2788 22.25 14.2783 22.25 14.2778C22.25 14.2773 22.25 14.2769 22.25 14.2764C22.25 14.2759 22.25 14.2754 22.25 14.2749C22.25 14.2744 22.25 14.2739 22.25 14.2734C22.25 14.2729 22.25 14.2725 22.25 14.272C22.25 14.2715 22.25 14.271 22.25 14.2705C22.25 14.27 22.25 14.2695 22.25 14.269C22.25 14.2686 22.25 14.2681 22.25 14.2676C22.25 14.2671 22.25 14.2666 22.25 14.2661C22.25 14.2656 22.25 14.2651 22.25 14.2646C22.25 14.2642 22.25 14.2637 22.25 14.2632C22.25 14.2627 22.25 14.2622 22.25 14.2617C22.25 14.2612 22.25 14.2607 22.25 14.2603C22.25 14.2598 22.25 14.2593 22.25 14.2588C22.25 14.2583 22.25 14.2578 22.25 14.2573C22.25 14.2568 22.25 14.2563 22.25 14.2559C22.25 14.2554 22.25 14.2549 22.25 14.2544C22.25 14.2539 22.25 14.2534 22.25 14.2529C22.25 14.2524 22.25 14.252 22.25 14.2515C22.25 14.251 22.25 14.2505 22.25 14.25H20.25C20.25 14.2505 20.25 14.251 20.25 14.2515C20.25 14.252 20.25 14.2524 20.25 14.2529C20.25 14.2534 20.25 14.2539 20.25 14.2544C20.25 14.2549 20.25 14.2554 20.25 14.2559C20.25 14.2563 20.25 14.2568 20.25 14.2573C20.25 14.2578 20.25 14.2583 20.25 14.2588C20.25 14.2593 20.25 14.2598 20.25 14.2603C20.25 14.2607 20.25 14.2612 20.25 14.2617C20.25 14.2622 20.25 14.2627 20.25 14.2632C20.25 14.2637 20.25 14.2642 20.25 14.2646C20.25 14.2651 20.25 14.2656 20.25 14.2661C20.25 14.2666 20.25 14.2671 20.25 14.2676C20.25 14.2681 20.25 14.2686 20.25 14.269C20.25 14.2695 20.25 14.27 20.25 14.2705C20.25 14.271 20.25 14.2715 20.25 14.272C20.25 14.2725 20.25 14.2729 20.25 14.2734C20.25 14.2739 20.25 14.2744 20.25 14.2749C20.25 14.2754 20.25 14.2759 20.25 14.2764C20.25 14.2769 20.25 14.2773 20.25 14.2778C20.25 14.2783 20.25 14.2788 20.25 14.2793C20.25 14.2798 20.25 14.2803 20.25 14.2808C20.25 14.2812 20.25 14.2817 20.25 14.2822C20.25 14.2827 20.25 14.2832 20.25 14.2837C20.25 14.2842 20.25 14.2847 20.25 14.2852C20.25 14.2856 20.25 14.2861 20.25 14.2866C20.25 14.2871 20.25 14.2876 20.25 14.2881C20.25 14.2886 20.25 14.2891 20.25 14.2896C20.25 14.29 20.25 14.2905 20.25 14.291C20.25 14.2915 20.25 14.292 20.25 14.2925C20.25 14.293 20.25 14.2935 20.25 14.2939C20.25 14.2944 20.25 14.2949 20.25 14.2954C20.25 14.2959 20.25 14.2964 20.25 14.2969C20.25 14.2974 20.25 14.2979 20.25 14.2983C20.25 14.2988 20.25 14.2993 20.25 14.2998C20.25 14.3003 20.25 14.3008 20.25 14.3013C20.25 14.3018 20.25 14.3022 20.25 14.3027C20.25 14.3032 20.25 14.3037 20.25 14.3042C20.25 14.3047 20.25 14.3052 20.25 14.3057C20.25 14.3062 20.25 14.3066 20.25 14.3071C20.25 14.3076 20.25 14.3081 20.25 14.3086C20.25 14.3091 20.25 14.3096 20.25 14.3101C20.25 14.3105 20.25 14.311 20.25 14.3115C20.25 14.312 20.25 14.3125 20.25 14.313C20.25 14.3135 20.25 14.314 20.25 14.3145C20.25 14.3149 20.25 14.3154 20.25 14.3159C20.25 14.3164 20.25 14.3169 20.25 14.3174C20.25 14.3179 20.25 14.3184 20.25 14.3188C20.25 14.3193 20.25 14.3198 20.25 14.3203C20.25 14.3208 20.25 14.3213 20.25 14.3218C20.25 14.3223 20.25 14.3228 20.25 14.3232C20.25 14.3237 20.25 14.3242 20.25 14.3247C20.25 14.3252 20.25 14.3257 20.25 14.3262C20.25 14.3267 20.25 14.3271 20.25 14.3276C20.25 14.3281 20.25 14.3286 20.25 14.3291C20.25 14.3296 20.25 14.3301 20.25 14.3306C20.25 14.3311 20.25 14.3315 20.25 14.332C20.25 14.3325 20.25 14.333 20.25 14.3335C20.25 14.334 20.25 14.3345 20.25 14.335C20.25 14.3354 20.25 14.3359 20.25 14.3364C20.25 14.3369 20.25 14.3374 20.25 14.3379C20.25 14.3384 20.25 14.3389 20.25 14.3394C20.25 14.3398 20.25 14.3403 20.25 14.3408C20.25 14.3413 20.25 14.3418 20.25 14.3423C20.25 14.3428 20.25 14.3433 20.25 14.3438C20.25 14.3442 20.25 14.3447 20.25 14.3452C20.25 14.3457 20.25 14.3462 20.25 14.3467C20.25 14.3472 20.25 14.3477 20.25 14.3481C20.25 14.3486 20.25 14.3491 20.25 14.3496C20.25 14.3501 20.25 14.3506 20.25 14.3511C20.25 14.3516 20.25 14.3521 20.25 14.3525C20.25 14.353 20.25 14.3535 20.25 14.354C20.25 14.3545 20.25 14.355 20.25 14.3555C20.25 14.356 20.25 14.3564 20.25 14.3569C20.25 14.3574 20.25 14.3579 20.25 14.3584C20.25 14.3589 20.25 14.3594 20.25 14.3599C20.25 14.3604 20.25 14.3608 20.25 14.3613C20.25 14.3618 20.25 14.3623 20.25 14.3628C20.25 14.3633 20.25 14.3638 20.25 14.3643C20.25 14.3647 20.25 14.3652 20.25 14.3657C20.25 14.3662 20.25 14.3667 20.25 14.3672C20.25 14.3677 20.25 14.3682 20.25 14.3687C20.25 14.3691 20.25 14.3696 20.25 14.3701C20.25 14.3706 20.25 14.3711 20.25 14.3716C20.25 14.3721 20.25 14.3726 20.25 14.373C20.25 14.3735 20.25 14.374 20.25 14.3745C20.25 14.375 20.25 14.3755 20.25 14.376C20.25 14.3765 20.25 14.377 20.25 14.3774C20.25 14.3779 20.25 14.3784 20.25 14.3789C20.25 14.3794 20.25 14.3799 20.25 14.3804C20.25 14.3809 20.25 14.3813 20.25 14.3818C20.25 14.3823 20.25 14.3828 20.25 14.3833C20.25 14.3838 20.25 14.3843 20.25 14.3848C20.25 14.3853 20.25 14.3857 20.25 14.3862C20.25 14.3867 20.25 14.3872 20.25 14.3877C20.25 14.3882 20.25 14.3887 20.25 14.3892C20.25 14.3896 20.25 14.3901 20.25 14.3906C20.25 14.3911 20.25 14.3916 20.25 14.3921C20.25 14.3926 20.25 14.3931 20.25 14.3936C20.25 14.394 20.25 14.3945 20.25 14.395C20.25 14.3955 20.25 14.396 20.25 14.3965C20.25 14.397 20.25 14.3975 20.25 14.3979C20.25 14.3984 20.25 14.3989 20.25 14.3994C20.25 14.3999 20.25 14.4004 20.25 14.4009C20.25 14.4014 20.25 14.4019 20.25 14.4023C20.25 14.4028 20.25 14.4033 20.25 14.4038C20.25 14.4043 20.25 14.4048 20.25 14.4053C20.25 14.4058 20.25 14.4062 20.25 14.4067C20.25 14.4072 20.25 14.4077 20.25 14.4082C20.25 14.4087 20.25 14.4092 20.25 14.4097C20.25 14.4102 20.25 14.4106 20.25 14.4111C20.25 14.4116 20.25 14.4121 20.25 14.4126C20.25 14.4131 20.25 14.4136 20.25 14.4141C20.25 14.4146 20.25 14.415 20.25 14.4155C20.25 14.416 20.25 14.4165 20.25 14.417C20.25 14.4175 20.25 14.418 20.25 14.4185C20.25 14.4189 20.25 14.4194 20.25 14.4199C20.25 14.4204 20.25 14.4209 20.25 14.4214C20.25 14.4219 20.25 14.4224 20.25 14.4229C20.25 14.4233 20.25 14.4238 20.25 14.4243C20.25 14.4248 20.25 14.4253 20.25 14.4258C20.25 14.4263 20.25 14.4268 20.25 14.4272C20.25 14.4277 20.25 14.4282 20.25 14.4287C20.25 14.4292 20.25 14.4297 20.25 14.4302C20.25 14.4307 20.25 14.4312 20.25 14.4316C20.25 14.4321 20.25 14.4326 20.25 14.4331C20.25 14.4336 20.25 14.4341 20.25 14.4346C20.25 14.4351 20.25 14.4355 20.25 14.436C20.25 14.4365 20.25 14.437 20.25 14.4375C20.25 14.438 20.25 14.4385 20.25 14.439C20.25 14.4395 20.25 14.4399 20.25 14.4404C20.25 14.4409 20.25 14.4414 20.25 14.4419C20.25 14.4424 20.25 14.4429 20.25 14.4434C20.25 14.4438 20.25 14.4443 20.25 14.4448C20.25 14.4453 20.25 14.4458 20.25 14.4463C20.25 14.4468 20.25 14.4473 20.25 14.4478C20.25 14.4482 20.25 14.4487 20.25 14.4492C20.25 14.4497 20.25 14.4502 20.25 14.4507C20.25 14.4512 20.25 14.4517 20.25 14.4521C20.25 14.4526 20.25 14.4531 20.25 14.4536C20.25 14.4541 20.25 14.4546 20.25 14.4551C20.25 14.4556 20.25 14.4561 20.25 14.4565C20.25 14.457 20.25 14.4575 20.25 14.458C20.25 14.4585 20.25 14.459 20.25 14.4595C20.25 14.46 20.25 14.4604 20.25 14.4609C20.25 14.4614 20.25 14.4619 20.25 14.4624C20.25 14.4629 20.25 14.4634 20.25 14.4639C20.25 14.4644 20.25 14.4648 20.25 14.4653C20.25 14.4658 20.25 14.4663 20.25 14.4668C20.25 14.4673 20.25 14.4678 20.25 14.4683C20.25 14.4688 20.25 14.4692 20.25 14.4697C20.25 14.4702 20.25 14.4707 20.25 14.4712C20.25 14.4717 20.25 14.4722 20.25 14.4727C20.25 14.4731 20.25 14.4736 20.25 14.4741C20.25 14.4746 20.25 14.4751 20.25 14.4756C20.25 14.4761 20.25 14.4766 20.25 14.4771C20.25 14.4775 20.25 14.478 20.25 14.4785C20.25 14.479 20.25 14.4795 20.25 14.48C20.25 14.4805 20.25 14.481 20.25 14.4814C20.25 14.4819 20.25 14.4824 20.25 14.4829C20.25 14.4834 20.25 14.4839 20.25 14.4844C20.25 14.4849 20.25 14.4854 20.25 14.4858C20.25 14.4863 20.25 14.4868 20.25 14.4873C20.25 14.4878 20.25 14.4883 20.25 14.4888C20.25 14.4893 20.25 14.4897 20.25 14.4902C20.25 14.4907 20.25 14.4912 20.25 14.4917C20.25 14.4922 20.25 14.4927 20.25 14.4932C20.25 14.4937 20.25 14.4941 20.25 14.4946C20.25 14.4951 20.25 14.4956 20.25 14.4961C20.25 14.4966 20.25 14.4971 20.25 14.4976C20.25 14.498 20.25 14.4985 20.25 14.499C20.25 14.4995 20.25 14.5 20.25 14.5005C20.25 14.501 20.25 14.5015 20.25 14.502C20.25 14.5024 20.25 14.5029 20.25 14.5034C20.25 14.5039 20.25 14.5044 20.25 14.5049C20.25 14.5054 20.25 14.5059 20.25 14.5063C20.25 14.5068 20.25 14.5073 20.25 14.5078C20.25 14.5083 20.25 14.5088 20.25 14.5093C20.25 14.5098 20.25 14.5103 20.25 14.5107C20.25 14.5112 20.25 14.5117 20.25 14.5122C20.25 14.5127 20.25 14.5132 20.25 14.5137C20.25 14.5142 20.25 14.5146 20.25 14.5151C20.25 14.5156 20.25 14.5161 20.25 14.5166C20.25 14.5171 20.25 14.5176 20.25 14.5181C20.25 14.5186 20.25 14.519 20.25 14.5195C20.25 14.52 20.25 14.5205 20.25 14.521C20.25 14.5215 20.25 14.522 20.25 14.5225C20.25 14.5229 20.25 14.5234 20.25 14.5239C20.25 14.5244 20.25 14.5249 20.25 14.5254C20.25 14.5259 20.25 14.5264 20.25 14.5269C20.25 14.5273 20.25 14.5278 20.25 14.5283C20.25 14.5288 20.25 14.5293 20.25 14.5298C20.25 14.5303 20.25 14.5308 20.25 14.5312C20.25 14.5317 20.25 14.5322 20.25 14.5327C20.25 14.5332 20.25 14.5337 20.25 14.5342C20.25 14.5347 20.25 14.5352 20.25 14.5356C20.25 14.5361 20.25 14.5366 20.25 14.5371C20.25 14.5376 20.25 14.5381 20.25 14.5386C20.25 14.5391 20.25 14.5396 20.25 14.54C20.25 14.5405 20.25 14.541 20.25 14.5415C20.25 14.542 20.25 14.5425 20.25 14.543C20.25 14.5435 20.25 14.5439 20.25 14.5444C20.25 14.5449 20.25 14.5454 20.25 14.5459C20.25 14.5464 20.25 14.5469 20.25 14.5474C20.25 14.5479 20.25 14.5483 20.25 14.5488C20.25 14.5493 20.25 14.5498 20.25 14.5503C20.25 14.5508 20.25 14.5513 20.25 14.5518C20.25 14.5522 20.25 14.5527 20.25 14.5532C20.25 14.5537 20.25 14.5542 20.25 14.5547C20.25 14.5552 20.25 14.5557 20.25 14.5562C20.25 14.5566 20.25 14.5571 20.25 14.5576C20.25 14.5581 20.25 14.5586 20.25 14.5591C20.25 14.5596 20.25 14.5601 20.25 14.5605C20.25 14.561 20.25 14.5615 20.25 14.562C20.25 14.5625 20.25 14.563 20.25 14.5635C20.25 14.564 20.25 14.5645 20.25 14.5649C20.25 14.5654 20.25 14.5659 20.25 14.5664C20.25 14.5669 20.25 14.5674 20.25 14.5679C20.25 14.5684 20.25 14.5688 20.25 14.5693C20.25 14.5698 20.25 14.5703 20.25 14.5708C20.25 14.5713 20.25 14.5718 20.25 14.5723C20.25 14.5728 20.25 14.5732 20.25 14.5737C20.25 14.5742 20.25 14.5747 20.25 14.5752C20.25 14.5757 20.25 14.5762 20.25 14.5767C20.25 14.5771 20.25 14.5776 20.25 14.5781C20.25 14.5786 20.25 14.5791 20.25 14.5796C20.25 14.5801 20.25 14.5806 20.25 14.5811C20.25 14.5815 20.25 14.582 20.25 14.5825C20.25 14.583 20.25 14.5835 20.25 14.584C20.25 14.5845 20.25 14.585 20.25 14.5854C20.25 14.5859 20.25 14.5864 20.25 14.5869C20.25 14.5874 20.25 14.5879 20.25 14.5884C20.25 14.5889 20.25 14.5894 20.25 14.5898C20.25 14.5903 20.25 14.5908 20.25 14.5913C20.25 14.5918 20.25 14.5923 20.25 14.5928C20.25 14.5933 20.25 14.5938 20.25 14.5942C20.25 14.5947 20.25 14.5952 20.25 14.5957C20.25 14.5962 20.25 14.5967 20.25 14.5972C20.25 14.5977 20.25 14.5981 20.25 14.5986C20.25 14.5991 20.25 14.5996 20.25 14.6001C20.25 14.6006 20.25 14.6011 20.25 14.6016C20.25 14.6021 20.25 14.6025 20.25 14.603C20.25 14.6035 20.25 14.604 20.25 14.6045C20.25 14.605 20.25 14.6055 20.25 14.606C20.25 14.6064 20.25 14.6069 20.25 14.6074C20.25 14.6079 20.25 14.6084 20.25 14.6089C20.25 14.6094 20.25 14.6099 20.25 14.6104C20.25 14.6108 20.25 14.6113 20.25 14.6118C20.25 14.6123 20.25 14.6128 20.25 14.6133C20.25 14.6138 20.25 14.6143 20.25 14.6147C20.25 14.6152 20.25 14.6157 20.25 14.6162C20.25 14.6167 20.25 14.6172 20.25 14.6177C20.25 14.6182 20.25 14.6187 20.25 14.6191C20.25 14.6196 20.25 14.6201 20.25 14.6206C20.25 14.6211 20.25 14.6216 20.25 14.6221C20.25 14.6226 20.25 14.623 20.25 14.6235C20.25 14.624 20.25 14.6245 20.25 14.625C20.25 14.6255 20.25 14.626 20.25 14.6265C20.25 14.627 20.25 14.6274 20.25 14.6279C20.25 14.6284 20.25 14.6289 20.25 14.6294C20.25 14.6299 20.25 14.6304 20.25 14.6309C20.25 14.6313 20.25 14.6318 20.25 14.6323C20.25 14.6328 20.25 14.6333 20.25 14.6338C20.25 14.6343 20.25 14.6348 20.25 14.6353C20.25 14.6357 20.25 14.6362 20.25 14.6367C20.25 14.6372 20.25 14.6377 20.25 14.6382C20.25 14.6387 20.25 14.6392 20.25 14.6396C20.25 14.6401 20.25 14.6406 20.25 14.6411C20.25 14.6416 20.25 14.6421 20.25 14.6426C20.25 14.6431 20.25 14.6436 20.25 14.644C20.25 14.6445 20.25 14.645 20.25 14.6455C20.25 14.646 20.25 14.6465 20.25 14.647C20.25 14.6475 20.25 14.6479 20.25 14.6484C20.25 14.6489 20.25 14.6494 20.25 14.6499C20.25 14.6504 20.25 14.6509 20.25 14.6514C20.25 14.6519 20.25 14.6523 20.25 14.6528C20.25 14.6533 20.25 14.6538 20.25 14.6543C20.25 14.6548 20.25 14.6553 20.25 14.6558C20.25 14.6562 20.25 14.6567 20.25 14.6572C20.25 14.6577 20.25 14.6582 20.25 14.6587C20.25 14.6592 20.25 14.6597 20.25 14.6602C20.25 14.6606 20.25 14.6611 20.25 14.6616C20.25 14.6621 20.25 14.6626 20.25 14.6631C20.25 14.6636 20.25 14.6641 20.25 14.6646C20.25 14.665 20.25 14.6655 20.25 14.666C20.25 14.6665 20.25 14.667 20.25 14.6675C20.25 14.668 20.25 14.6685 20.25 14.6689C20.25 14.6694 20.25 14.6699 20.25 14.6704C20.25 14.6709 20.25 14.6714 20.25 14.6719C20.25 14.6724 20.25 14.6729 20.25 14.6733C20.25 14.6738 20.25 14.6743 20.25 14.6748C20.25 14.6753 20.25 14.6758 20.25 14.6763C20.25 14.6768 20.25 14.6772 20.25 14.6777C20.25 14.6782 20.25 14.6787 20.25 14.6792C20.25 14.6797 20.25 14.6802 20.25 14.6807C20.25 14.6812 20.25 14.6816 20.25 14.6821C20.25 14.6826 20.25 14.6831 20.25 14.6836C20.25 14.6841 20.25 14.6846 20.25 14.6851C20.25 14.6855 20.25 14.686 20.25 14.6865C20.25 14.687 20.25 14.6875 20.25 14.688C20.25 14.6885 20.25 14.689 20.25 14.6895C20.25 14.6899 20.25 14.6904 20.25 14.6909C20.25 14.6914 20.25 14.6919 20.25 14.6924C20.25 14.6929 20.25 14.6934 20.25 14.6938C20.25 14.6943 20.25 14.6948 20.25 14.6953C20.25 14.6958 20.25 14.6963 20.25 14.6968C20.25 14.6973 20.25 14.6978 20.25 14.6982C20.25 14.6987 20.25 14.6992 20.25 14.6997C20.25 14.7002 20.25 14.7007 20.25 14.7012C20.25 14.7017 20.25 14.7021 20.25 14.7026C20.25 14.7031 20.25 14.7036 20.25 14.7041C20.25 14.7046 20.25 14.7051 20.25 14.7056C20.25 14.7061 20.25 14.7065 20.25 14.707C20.25 14.7075 20.25 14.708 20.25 14.7085C20.25 14.709 20.25 14.7095 20.25 14.71C20.25 14.7104 20.25 14.7109 20.25 14.7114C20.25 14.7119 20.25 14.7124 20.25 14.7129C20.25 14.7134 20.25 14.7139 20.25 14.7144C20.25 14.7148 20.25 14.7153 20.25 14.7158C20.25 14.7163 20.25 14.7168 20.25 14.7173C20.25 14.7178 20.25 14.7183 20.25 14.7188C20.25 14.7192 20.25 14.7197 20.25 14.7202C20.25 14.7207 20.25 14.7212 20.25 14.7217C20.25 14.7222 20.25 14.7227 20.25 14.7231C20.25 14.7236 20.25 14.7241 20.25 14.7246C20.25 14.7251 20.25 14.7256 20.25 14.7261C20.25 14.7266 20.25 14.7271 20.25 14.7275C20.25 14.728 20.25 14.7285 20.25 14.729C20.25 14.7295 20.25 14.73 20.25 14.7305C20.25 14.731 20.25 14.7314 20.25 14.7319C20.25 14.7324 20.25 14.7329 20.25 14.7334C20.25 14.7339 20.25 14.7344 20.25 14.7349C20.25 14.7354 20.25 14.7358 20.25 14.7363C20.25 14.7368 20.25 14.7373 20.25 14.7378C20.25 14.7383 20.25 14.7388 20.25 14.7393C20.25 14.7397 20.25 14.7402 20.25 14.7407C20.25 14.7412 20.25 14.7417 20.25 14.7422C20.25 14.7427 20.25 14.7432 20.25 14.7437C20.25 14.7441 20.25 14.7446 20.25 14.7451C20.25 14.7456 20.25 14.7461 20.25 14.7466C20.25 14.7471 20.25 14.7476 20.25 14.748C20.25 14.7485 20.25 14.749 20.25 14.7495C20.25 14.75 20.25 14.7505 20.25 14.751C20.25 14.7515 20.25 14.752 20.25 14.7524C20.25 14.7529 20.25 14.7534 20.25 14.7539C20.25 14.7544 20.25 14.7549 20.25 14.7554C20.25 14.7559 20.25 14.7563 20.25 14.7568C20.25 14.7573 20.25 14.7578 20.25 14.7583C20.25 14.7588 20.25 14.7593 20.25 14.7598C20.25 14.7603 20.25 14.7607 20.25 14.7612C20.25 14.7617 20.25 14.7622 20.25 14.7627C20.25 14.7632 20.25 14.7637 20.25 14.7642C20.25 14.7646 20.25 14.7651 20.25 14.7656C20.25 14.7661 20.25 14.7666 20.25 14.7671C20.25 14.7676 20.25 14.7681 20.25 14.7686C20.25 14.769 20.25 14.7695 20.25 14.77C20.25 14.7705 20.25 14.771 20.25 14.7715C20.25 14.772 20.25 14.7725 20.25 14.7729C20.25 14.7734 20.25 14.7739 20.25 14.7744C20.25 14.7749 20.25 14.7754 20.25 14.7759C20.25 14.7764 20.25 14.7769 20.25 14.7773C20.25 14.7778 20.25 14.7783 20.25 14.7788C20.25 14.7793 20.25 14.7798 20.25 14.7803C20.25 14.7808 20.25 14.7812 20.25 14.7817C20.25 14.7822 20.25 14.7827 20.25 14.7832C20.25 14.7837 20.25 14.7842 20.25 14.7847C20.25 14.7852 20.25 14.7856 20.25 14.7861C20.25 14.7866 20.25 14.7871 20.25 14.7876C20.25 14.7881 20.25 14.7886 20.25 14.7891C20.25 14.7896 20.25 14.79 20.25 14.7905C20.25 14.791 20.25 14.7915 20.25 14.792C20.25 14.7925 20.25 14.793 20.25 14.7935C20.25 14.7939 20.25 14.7944 20.25 14.7949C20.25 14.7954 20.25 14.7959 20.25 14.7964C20.25 14.7969 20.25 14.7974 20.25 14.7979C20.25 14.7983 20.25 14.7988 20.25 14.7993C20.25 14.7998 20.25 14.8003 20.25 14.8008C20.25 14.8013 20.25 14.8018 20.25 14.8022C20.25 14.8027 20.25 14.8032 20.25 14.8037C20.25 14.8042 20.25 14.8047 20.25 14.8052C20.25 14.8057 20.25 14.8062 20.25 14.8066C20.25 14.8071 20.25 14.8076 20.25 14.8081C20.25 14.8086 20.25 14.8091 20.25 14.8096C20.25 14.8101 20.25 14.8105 20.25 14.811C20.25 14.8115 20.25 14.812 20.25 14.8125C20.25 14.813 20.25 14.8135 20.25 14.814C20.25 14.8145 20.25 14.8149 20.25 14.8154C20.25 14.8159 20.25 14.8164 20.25 14.8169C20.25 14.8174 20.25 14.8179 20.25 14.8184C20.25 14.8188 20.25 14.8193 20.25 14.8198C20.25 14.8203 20.25 14.8208 20.25 14.8213C20.25 14.8218 20.25 14.8223 20.25 14.8228C20.25 14.8232 20.25 14.8237 20.25 14.8242C20.25 14.8247 20.25 14.8252 20.25 14.8257C20.25 14.8262 20.25 14.8267 20.25 14.8271C20.25 14.8276 20.25 14.8281 20.25 14.8286C20.25 14.8291 20.25 14.8296 20.25 14.8301C20.25 14.8306 20.25 14.8311 20.25 14.8315C20.25 14.832 20.25 14.8325 20.25 14.833C20.25 14.8335 20.25 14.834 20.25 14.8345C20.25 14.835 20.25 14.8354 20.25 14.8359C20.25 14.8364 20.25 14.8369 20.25 14.8374C20.25 14.8379 20.25 14.8384 20.25 14.8389C20.25 14.8394 20.25 14.8398 20.25 14.8403C20.25 14.8408 20.25 14.8413 20.25 14.8418C20.25 14.8423 20.25 14.8428 20.25 14.8433C20.25 14.8438 20.25 14.8442 20.25 14.8447C20.25 14.8452 20.25 14.8457 20.25 14.8462C20.25 14.8467 20.25 14.8472 20.25 14.8477C20.25 14.8481 20.25 14.8486 20.25 14.8491C20.25 14.8496 20.25 14.8501 20.25 14.8506C20.25 14.8511 20.25 14.8516 20.25 14.8521C20.25 14.8525 20.25 14.853 20.25 14.8535C20.25 14.854 20.25 14.8545 20.25 14.855C20.25 14.8555 20.25 14.856 20.25 14.8564C20.25 14.8569 20.25 14.8574 20.25 14.8579C20.25 14.8584 20.25 14.8589 20.25 14.8594C20.25 14.8599 20.25 14.8604 20.25 14.8608C20.25 14.8613 20.25 14.8618 20.25 14.8623C20.25 14.8628 20.25 14.8633 20.25 14.8638C20.25 14.8643 20.25 14.8647 20.25 14.8652C20.25 14.8657 20.25 14.8662 20.25 14.8667C20.25 14.8672 20.25 14.8677 20.25 14.8682C20.25 14.8687 20.25 14.8691 20.25 14.8696C20.25 14.8701 20.25 14.8706 20.25 14.8711C20.25 14.8716 20.25 14.8721 20.25 14.8726C20.25 14.873 20.25 14.8735 20.25 14.874C20.25 14.8745 20.25 14.875 20.25 14.8755C20.25 14.876 20.25 14.8765 20.25 14.877C20.25 14.8774 20.25 14.8779 20.25 14.8784C20.25 14.8789 20.25 14.8794 20.25 14.8799C20.25 14.8804 20.25 14.8809 20.25 14.8813C20.25 14.8818 20.25 14.8823 20.25 14.8828C20.25 14.8833 20.25 14.8838 20.25 14.8843C20.25 14.8848 20.25 14.8853 20.25 14.8857C20.25 14.8862 20.25 14.8867 20.25 14.8872C20.25 14.8877 20.25 14.8882 20.25 14.8887C20.25 14.8892 20.25 14.8896 20.25 14.8901C20.25 14.8906 20.25 14.8911 20.25 14.8916C20.25 14.8921 20.25 14.8926 20.25 14.8931C20.25 14.8936 20.25 14.894 20.25 14.8945C20.25 14.895 20.25 14.8955 20.25 14.896C20.25 14.8965 20.25 14.897 20.25 14.8975C20.25 14.8979 20.25 14.8984 20.25 14.8989C20.25 14.8994 20.25 14.8999 20.25 14.9004C20.25 14.9009 20.25 14.9014 20.25 14.9019C20.25 14.9023 20.25 14.9028 20.25 14.9033C20.25 14.9038 20.25 14.9043 20.25 14.9048C20.25 14.9053 20.25 14.9058 20.25 14.9062C20.25 14.9067 20.25 14.9072 20.25 14.9077C20.25 14.9082 20.25 14.9087 20.25 14.9092C20.25 14.9097 20.25 14.9102 20.25 14.9106C20.25 14.9111 20.25 14.9116 20.25 14.9121C20.25 14.9126 20.25 14.9131 20.25 14.9136C20.25 14.9141 20.25 14.9146 20.25 14.915C20.25 14.9155 20.25 14.916 20.25 14.9165C20.25 14.917 20.25 14.9175 20.25 14.918C20.25 14.9185 20.25 14.9189 20.25 14.9194C20.25 14.9199 20.25 14.9204 20.25 14.9209C20.25 14.9214 20.25 14.9219 20.25 14.9224C20.25 14.9229 20.25 14.9233 20.25 14.9238C20.25 14.9243 20.25 14.9248 20.25 14.9253C20.25 14.9258 20.25 14.9263 20.25 14.9268C20.25 14.9272 20.25 14.9277 20.25 14.9282C20.25 14.9287 20.25 14.9292 20.25 14.9297C20.25 14.9302 20.25 14.9307 20.25 14.9312C20.25 14.9316 20.25 14.9321 20.25 14.9326C20.25 14.9331 20.25 14.9336 20.25 14.9341C20.25 14.9346 20.25 14.9351 20.25 14.9355C20.25 14.936 20.25 14.9365 20.25 14.937C20.25 14.9375 20.25 14.938 20.25 14.9385C20.25 14.939 20.25 14.9395 20.25 14.9399C20.25 14.9404 20.25 14.9409 20.25 14.9414C20.25 14.9419 20.25 14.9424 20.25 14.9429C20.25 14.9434 20.25 14.9438 20.25 14.9443C20.25 14.9448 20.25 14.9453 20.25 14.9458C20.25 14.9463 20.25 14.9468 20.25 14.9473C20.25 14.9478 20.25 14.9482 20.25 14.9487C20.25 14.9492 20.25 14.9497 20.25 14.9502C20.25 14.9507 20.25 14.9512 20.25 14.9517C20.25 14.9521 20.25 14.9526 20.25 14.9531C20.25 14.9536 20.25 14.9541 20.25 14.9546C20.25 14.9551 20.25 14.9556 20.25 14.9561C20.25 14.9565 20.25 14.957 20.25 14.9575C20.25 14.958 20.25 14.9585 20.25 14.959C20.25 14.9595 20.25 14.96 20.25 14.9604C20.25 14.9609 20.25 14.9614 20.25 14.9619C20.25 14.9624 20.25 14.9629 20.25 14.9634C20.25 14.9639 20.25 14.9644 20.25 14.9648C20.25 14.9653 20.25 14.9658 20.25 14.9663C20.25 14.9668 20.25 14.9673 20.25 14.9678C20.25 14.9683 20.25 14.9688 20.25 14.9692C20.25 14.9697 20.25 14.9702 20.25 14.9707C20.25 14.9712 20.25 14.9717 20.25 14.9722C20.25 14.9727 20.25 14.9731 20.25 14.9736C20.25 14.9741 20.25 14.9746 20.25 14.9751C20.25 14.9756 20.25 14.9761 20.25 14.9766C20.25 14.9771 20.25 14.9775 20.25 14.978C20.25 14.9785 20.25 14.979 20.25 14.9795C20.25 14.98 20.25 14.9805 20.25 14.981C20.25 14.9814 20.25 14.9819 20.25 14.9824C20.25 14.9829 20.25 14.9834 20.25 14.9839C20.25 14.9844 20.25 14.9849 20.25 14.9854C20.25 14.9858 20.25 14.9863 20.25 14.9868C20.25 14.9873 20.25 14.9878 20.25 14.9883C20.25 14.9888 20.25 14.9893 20.25 14.9897C20.25 14.9902 20.25 14.9907 20.25 14.9912C20.25 14.9917 20.25 14.9922 20.25 14.9927C20.25 14.9932 20.25 14.9937 20.25 14.9941C20.25 14.9946 20.25 14.9951 20.25 14.9956C20.25 14.9961 20.25 14.9966 20.25 14.9971C20.25 14.9976 20.25 14.998 20.25 14.9985C20.25 14.999 20.25 14.9995 20.25 15H22.25ZM22.2461 14.1617C22.0879 12.376 21.5505 10.8763 20.5212 9.79494C19.4805 8.70157 18.0535 8.15768 16.368 8.06404L16.257 10.061C17.5715 10.134 18.4674 10.538 19.0725 11.1738C19.6891 11.8216 20.1205 12.8323 20.2539 14.3383L22.2461 14.1617ZM16.3125 8.0625H12.125V10.0625H16.3125V8.0625ZM13.125 9.0625V2.25H11.125V9.0625H13.125ZM12.125 3.25H16.875V1.25H12.125V3.25ZM16.8585 3.24986C20.4874 3.30968 23.0409 4.282 24.7016 6.00621C26.3669 7.73518 27.2925 10.3838 27.3125 14.1303L29.3125 14.1197C29.2909 10.0746 28.2894 6.84816 26.1421 4.61879C23.9903 2.38466 20.8459 1.31532 16.8915 1.25014L16.8585 3.24986ZM27.3125 14.125C27.3125 19.9817 25.4734 23.2246 22.1981 24.5063L22.9269 26.3687C27.3182 24.6504 29.3125 20.3517 29.3125 14.125H27.3125ZM22.2388 24.4913C20.787 24.988 19.0063 25.25 16.875 25.25V27.25C19.1604 27.25 21.1714 26.9703 22.8862 26.3837L22.2388 24.4913ZM16.875 25.25C16.8748 25.25 16.8747 25.25 16.8745 25.25C16.8743 25.25 16.8741 25.25 16.874 25.25C16.8738 25.25 16.8736 25.25 16.8734 25.25C16.8732 25.25 16.873 25.25 16.8728 25.25C16.8726 25.25 16.8723 25.25 16.8721 25.25C16.8719 25.25 16.8717 25.25 16.8715 25.25C16.8712 25.25 16.871 25.25 16.8707 25.25C16.8705 25.25 16.8702 25.25 16.87 25.25C16.8697 25.25 16.8695 25.25 16.8692 25.25C16.8689 25.25 16.8687 25.25 16.8684 25.25C16.8681 25.25 16.8678 25.25 16.8676 25.25C16.8673 25.25 16.867 25.25 16.8667 25.25C16.8664 25.25 16.8661 25.25 16.8658 25.25C16.8654 25.25 16.8651 25.25 16.8648 25.25C16.8645 25.25 16.8641 25.25 16.8638 25.25C16.8635 25.25 16.8631 25.25 16.8628 25.25C16.8624 25.25 16.8621 25.25 16.8617 25.25C16.8614 25.25 16.861 25.25 16.8606 25.25C16.8603 25.25 16.8599 25.25 16.8595 25.25C16.8591 25.25 16.8588 25.25 16.8584 25.25C16.858 25.25 16.8576 25.25 16.8572 25.25C16.8568 25.25 16.8564 25.25 16.8559 25.25C16.8555 25.25 16.8551 25.25 16.8547 25.25C16.8543 25.25 16.8538 25.25 16.8534 25.25C16.853 25.25 16.8525 25.25 16.8521 25.25C16.8516 25.25 16.8512 25.25 16.8507 25.25C16.8502 25.25 16.8498 25.25 16.8493 25.25C16.8488 25.25 16.8484 25.25 16.8479 25.25C16.8474 25.25 16.8469 25.25 16.8464 25.25C16.8459 25.25 16.8454 25.25 16.8449 25.25C16.8444 25.25 16.8439 25.25 16.8434 25.25C16.8428 25.25 16.8423 25.25 16.8418 25.25C16.8413 25.25 16.8407 25.25 16.8402 25.25C16.8397 25.25 16.8391 25.25 16.8386 25.25C16.838 25.25 16.8374 25.25 16.8369 25.25C16.8363 25.25 16.8357 25.25 16.8352 25.25C16.8346 25.25 16.834 25.25 16.8334 25.25C16.8328 25.25 16.8323 25.25 16.8317 25.25C16.8311 25.25 16.8305 25.25 16.8298 25.25C16.8292 25.25 16.8286 25.25 16.828 25.25C16.8274 25.25 16.8268 25.25 16.8261 25.25C16.8255 25.25 16.8249 25.25 16.8242 25.25C16.8236 25.25 16.8229 25.25 16.8223 25.25C16.8216 25.25 16.8209 25.25 16.8203 25.25C16.8196 25.25 16.8189 25.25 16.8183 25.25C16.8176 25.25 16.8169 25.25 16.8162 25.25C16.8155 25.25 16.8148 25.25 16.8141 25.25C16.8134 25.25 16.8127 25.25 16.812 25.25C16.8113 25.25 16.8106 25.25 16.8099 25.25C16.8091 25.25 16.8084 25.25 16.8077 25.25C16.8069 25.25 16.8062 25.25 16.8054 25.25C16.8047 25.25 16.8039 25.25 16.8032 25.25C16.8024 25.25 16.8017 25.25 16.8009 25.25C16.8001 25.25 16.7994 25.25 16.7986 25.25C16.7978 25.25 16.797 25.25 16.7962 25.25C16.7954 25.25 16.7946 25.25 16.7938 25.25C16.793 25.25 16.7922 25.25 16.7914 25.25C16.7906 25.25 16.7898 25.25 16.7889 25.25C16.7881 25.25 16.7873 25.25 16.7864 25.25C16.7856 25.25 16.7848 25.25 16.7839 25.25C16.7831 25.25 16.7822 25.25 16.7813 25.25C16.7805 25.25 16.7796 25.25 16.7787 25.25C16.7779 25.25 16.777 25.25 16.7761 25.25C16.7752 25.25 16.7743 25.25 16.7734 25.25C16.7725 25.25 16.7716 25.25 16.7707 25.25C16.7698 25.25 16.7689 25.25 16.768 25.25C16.7671 25.25 16.7662 25.25 16.7652 25.25C16.7643 25.25 16.7634 25.25 16.7624 25.25C16.7615 25.25 16.7605 25.25 16.7596 25.25C16.7586 25.25 16.7577 25.25 16.7567 25.25C16.7557 25.25 16.7548 25.25 16.7538 25.25C16.7528 25.25 16.7518 25.25 16.7509 25.25C16.7499 25.25 16.7489 25.25 16.7479 25.25C16.7469 25.25 16.7459 25.25 16.7449 25.25C16.7439 25.25 16.7428 25.25 16.7418 25.25C16.7408 25.25 16.7398 25.25 16.7387 25.25C16.7377 25.25 16.7367 25.25 16.7356 25.25C16.7346 25.25 16.7335 25.25 16.7325 25.25C16.7314 25.25 16.7304 25.25 16.7293 25.25C16.7282 25.25 16.7272 25.25 16.7261 25.25C16.725 25.25 16.7239 25.25 16.7228 25.25C16.7217 25.25 16.7206 25.25 16.7195 25.25C16.7184 25.25 16.7173 25.25 16.7162 25.25C16.7151 25.25 16.714 25.25 16.7129 25.25C16.7117 25.25 16.7106 25.25 16.7095 25.25C16.7083 25.25 16.7072 25.25 16.706 25.25C16.7049 25.25 16.7037 25.25 16.7026 25.25C16.7014 25.25 16.7003 25.25 16.6991 25.25C16.6979 25.25 16.6968 25.25 16.6956 25.25C16.6944 25.25 16.6932 25.25 16.692 25.25C16.6908 25.25 16.6896 25.25 16.6884 25.25C16.6872 25.25 16.686 25.25 16.6848 25.25C16.6836 25.25 16.6823 25.25 16.6811 25.25C16.6799 25.25 16.6787 25.25 16.6774 25.25C16.6762 25.25 16.6749 25.25 16.6737 25.25C16.6724 25.25 16.6712 25.25 16.6699 25.25C16.6687 25.25 16.6674 25.25 16.6661 25.25C16.6648 25.25 16.6636 25.25 16.6623 25.25C16.661 25.25 16.6597 25.25 16.6584 25.25C16.6571 25.25 16.6558 25.25 16.6545 25.25C16.6532 25.25 16.6519 25.25 16.6506 25.25C16.6493 25.25 16.6479 25.25 16.6466 25.25C16.6453 25.25 16.6439 25.25 16.6426 25.25C16.6412 25.25 16.6399 25.25 16.6385 25.25C16.6372 25.25 16.6358 25.25 16.6345 25.25C16.6331 25.25 16.6317 25.25 16.6304 25.25C16.629 25.25 16.6276 25.25 16.6262 25.25C16.6248 25.25 16.6234 25.25 16.622 25.25C16.6206 25.25 16.6192 25.25 16.6178 25.25C16.6164 25.25 16.615 25.25 16.6136 25.25C16.6122 25.25 16.6107 25.25 16.6093 25.25C16.6079 25.25 16.6064 25.25 16.605 25.25C16.6035 25.25 16.6021 25.25 16.6006 25.25C16.5992 25.25 16.5977 25.25 16.5962 25.25C16.5948 25.25 16.5933 25.25 16.5918 25.25C16.5903 25.25 16.5889 25.25 16.5874 25.25C16.5859 25.25 16.5844 25.25 16.5829 25.25C16.5814 25.25 16.5799 25.25 16.5784 25.25C16.5768 25.25 16.5753 25.25 16.5738 25.25C16.5723 25.25 16.5707 25.25 16.5692 25.25C16.5677 25.25 16.5661 25.25 16.5646 25.25C16.563 25.25 16.5615 25.25 16.5599 25.25C16.5584 25.25 16.5568 25.25 16.5552 25.25C16.5537 25.25 16.5521 25.25 16.5505 25.25C16.5489 25.25 16.5473 25.25 16.5457 25.25C16.5442 25.25 16.5426 25.25 16.5409 25.25C16.5393 25.25 16.5377 25.25 16.5361 25.25C16.5345 25.25 16.5329 25.25 16.5312 25.25C16.5296 25.25 16.528 25.25 16.5264 25.25C16.5247 25.25 16.5231 25.25 16.5214 25.25C16.5198 25.25 16.5181 25.25 16.5164 25.25C16.5148 25.25 16.5131 25.25 16.5114 25.25C16.5098 25.25 16.5081 25.25 16.5064 25.25C16.5047 25.25 16.503 25.25 16.5013 25.25C16.4996 25.25 16.4979 25.25 16.4962 25.25C16.4945 25.25 16.4928 25.25 16.4911 25.25C16.4894 25.25 16.4876 25.25 16.4859 25.25C16.4842 25.25 16.4824 25.25 16.4807 25.25C16.479 25.25 16.4772 25.25 16.4755 25.25C16.4737 25.25 16.4719 25.25 16.4702 25.25C16.4684 25.25 16.4666 25.25 16.4649 25.25C16.4631 25.25 16.4613 25.25 16.4595 25.25C16.4577 25.25 16.4559 25.25 16.4541 25.25C16.4523 25.25 16.4505 25.25 16.4487 25.25C16.4469 25.25 16.4451 25.25 16.4433 25.25C16.4415 25.25 16.4396 25.25 16.4378 25.25C16.436 25.25 16.4341 25.25 16.4323 25.25C16.4304 25.25 16.4286 25.25 16.4267 25.25C16.4249 25.25 16.423 25.25 16.4211 25.25C16.4193 25.25 16.4174 25.25 16.4155 25.25C16.4136 25.25 16.4118 25.25 16.4099 25.25C16.408 25.25 16.4061 25.25 16.4042 25.25C16.4023 25.25 16.4004 25.25 16.3985 25.25C16.3965 25.25 16.3946 25.25 16.3927 25.25C16.3908 25.25 16.3888 25.25 16.3869 25.25C16.385 25.25 16.383 25.25 16.3811 25.25C16.3791 25.25 16.3772 25.25 16.3752 25.25C16.3733 25.25 16.3713 25.25 16.3693 25.25C16.3673 25.25 16.3654 25.25 16.3634 25.25C16.3614 25.25 16.3594 25.25 16.3574 25.25C16.3554 25.25 16.3534 25.25 16.3514 25.25C16.3494 25.25 16.3474 25.25 16.3454 25.25C16.3434 25.25 16.3414 25.25 16.3393 25.25C16.3373 25.25 16.3353 25.25 16.3332 25.25C16.3312 25.25 16.3291 25.25 16.3271 25.25C16.325 25.25 16.323 25.25 16.3209 25.25C16.3189 25.25 16.3168 25.25 16.3147 25.25C16.3126 25.25 16.3106 25.25 16.3085 25.25C16.3064 25.25 16.3043 25.25 16.3022 25.25C16.3001 25.25 16.298 25.25 16.2959 25.25C16.2938 25.25 16.2917 25.25 16.2895 25.25C16.2874 25.25 16.2853 25.25 16.2832 25.25C16.281 25.25 16.2789 25.25 16.2768 25.25C16.2746 25.25 16.2725 25.25 16.2703 25.25C16.2682 25.25 16.266 25.25 16.2638 25.25C16.2617 25.25 16.2595 25.25 16.2573 25.25C16.2551 25.25 16.253 25.25 16.2508 25.25C16.2486 25.25 16.2464 25.25 16.2442 25.25C16.242 25.25 16.2398 25.25 16.2376 25.25C16.2354 25.25 16.2331 25.25 16.2309 25.25C16.2287 25.25 16.2265 25.25 16.2242 25.25C16.222 25.25 16.2198 25.25 16.2175 25.25C16.2153 25.25 16.213 25.25 16.2108 25.25C16.2085 25.25 16.2062 25.25 16.204 25.25C16.2017 25.25 16.1994 25.25 16.1972 25.25C16.1949 25.25 16.1926 25.25 16.1903 25.25C16.188 25.25 16.1857 25.25 16.1834 25.25C16.1811 25.25 16.1788 25.25 16.1765 25.25C16.1742 25.25 16.1718 25.25 16.1695 25.25C16.1672 25.25 16.1649 25.25 16.1625 25.25C16.1602 25.25 16.1578 25.25 16.1555 25.25C16.1532 25.25 16.1508 25.25 16.1484 25.25C16.1461 25.25 16.1437 25.25 16.1413 25.25C16.139 25.25 16.1366 25.25 16.1342 25.25C16.1318 25.25 16.1294 25.25 16.127 25.25C16.1246 25.25 16.1222 25.25 16.1198 25.25C16.1174 25.25 16.115 25.25 16.1126 25.25C16.1102 25.25 16.1078 25.25 16.1053 25.25C16.1029 25.25 16.1005 25.25 16.098 25.25C16.0956 25.25 16.0931 25.25 16.0907 25.25C16.0882 25.25 16.0858 25.25 16.0833 25.25C16.0809 25.25 16.0784 25.25 16.0759 25.25C16.0734 25.25 16.071 25.25 16.0685 25.25C16.066 25.25 16.0635 25.25 16.061 25.25C16.0585 25.25 16.056 25.25 16.0535 25.25C16.051 25.25 16.0485 25.25 16.046 25.25C16.0434 25.25 16.0409 25.25 16.0384 25.25C16.0358 25.25 16.0333 25.25 16.0308 25.25C16.0282 25.25 16.0257 25.25 16.0231 25.25C16.0206 25.25 16.018 25.25 16.0154 25.25C16.0129 25.25 16.0103 25.25 16.0077 25.25C16.0051 25.25 16.0026 25.25 16 25.25C15.9974 25.25 15.9948 25.25 15.9922 25.25C15.9896 25.25 15.987 25.25 15.9844 25.25C15.9818 25.25 15.9791 25.25 15.9765 25.25C15.9739 25.25 15.9713 25.25 15.9686 25.25C15.966 25.25 15.9634 25.25 15.9607 25.25C15.9581 25.25 15.9554 25.25 15.9528 25.25C15.9501 25.25 15.9474 25.25 15.9448 25.25C15.9421 25.25 15.9394 25.25 15.9367 25.25C15.9341 25.25 15.9314 25.25 15.9287 25.25C15.926 25.25 15.9233 25.25 15.9206 25.25C15.9179 25.25 15.9152 25.25 15.9125 25.25C15.9097 25.25 15.907 25.25 15.9043 25.25C15.9016 25.25 15.8988 25.25 15.8961 25.25C15.8934 25.25 15.8906 25.25 15.8879 25.25C15.8851 25.25 15.8824 25.25 15.8796 25.25C15.8768 25.25 15.8741 25.25 15.8713 25.25C15.8685 25.25 15.8658 25.25 15.863 25.25C15.8602 25.25 15.8574 25.25 15.8546 25.25C15.8518 25.25 15.849 25.25 15.8462 25.25C15.8434 25.25 15.8406 25.25 15.8378 25.25C15.835 25.25 15.8321 25.25 15.8293 25.25C15.8265 25.25 15.8236 25.25 15.8208 25.25C15.818 25.25 15.8151 25.25 15.8123 25.25C15.8094 25.25 15.8065 25.25 15.8037 25.25C15.8008 25.25 15.7979 25.25 15.7951 25.25C15.7922 25.25 15.7893 25.25 15.7864 25.25C15.7835 25.25 15.7807 25.25 15.7778 25.25C15.7749 25.25 15.772 25.25 15.769 25.25C15.7661 25.25 15.7632 25.25 15.7603 25.25C15.7574 25.25 15.7545 25.25 15.7515 25.25C15.7486 25.25 15.7456 25.25 15.7427 25.25C15.7398 25.25 15.7368 25.25 15.7339 25.25C15.7309 25.25 15.7279 25.25 15.725 25.25C15.722 25.25 15.719 25.25 15.7161 25.25C15.7131 25.25 15.7101 25.25 15.7071 25.25C15.7041 25.25 15.7011 25.25 15.6981 25.25C15.6951 25.25 15.6921 25.25 15.6891 25.25C15.6861 25.25 15.6831 25.25 15.68 25.25C15.677 25.25 15.674 25.25 15.671 25.25C15.6679 25.25 15.6649 25.25 15.6618 25.25C15.6588 25.25 15.6557 25.25 15.6527 25.25C15.6496 25.25 15.6466 25.25 15.6435 25.25C15.6404 25.25 15.6373 25.25 15.6343 25.25C15.6312 25.25 15.6281 25.25 15.625 25.25C15.6219 25.25 15.6188 25.25 15.6157 25.25C15.6126 25.25 15.6095 25.25 15.6064 25.25C15.6033 25.25 15.6001 25.25 15.597 25.25C15.5939 25.25 15.5908 25.25 15.5876 25.25C15.5845 25.25 15.5813 25.25 15.5782 25.25C15.575 25.25 15.5719 25.25 15.5687 25.25C15.5656 25.25 15.5624 25.25 15.5592 25.25C15.556 25.25 15.5529 25.25 15.5497 25.25C15.5465 25.25 15.5433 25.25 15.5401 25.25C15.5369 25.25 15.5337 25.25 15.5305 25.25C15.5273 25.25 15.5241 25.25 15.5209 25.25C15.5177 25.25 15.5144 25.25 15.5112 25.25C15.508 25.25 15.5047 25.25 15.5015 25.25C15.4983 25.25 15.495 25.25 15.4918 25.25C15.4885 25.25 15.4852 25.25 15.482 25.25C15.4787 25.25 15.4754 25.25 15.4722 25.25C15.4689 25.25 15.4656 25.25 15.4623 25.25C15.459 25.25 15.4557 25.25 15.4524 25.25C15.4491 25.25 15.4458 25.25 15.4425 25.25C15.4392 25.25 15.4359 25.25 15.4326 25.25C15.4293 25.25 15.4259 25.25 15.4226 25.25C15.4193 25.25 15.4159 25.25 15.4126 25.25C15.4092 25.25 15.4059 25.25 15.4025 25.25C15.3992 25.25 15.3958 25.25 15.3925 25.25C15.3891 25.25 15.3857 25.25 15.3823 25.25C15.379 25.25 15.3756 25.25 15.3722 25.25C15.3688 25.25 15.3654 25.25 15.362 25.25C15.3586 25.25 15.3552 25.25 15.3518 25.25C15.3484 25.25 15.3449 25.25 15.3415 25.25C15.3381 25.25 15.3347 25.25 15.3312 25.25C15.3278 25.25 15.3244 25.25 15.3209 25.25C15.3175 25.25 15.314 25.25 15.3105 25.25C15.3071 25.25 15.3036 25.25 15.3002 25.25C15.2967 25.25 15.2932 25.25 15.2897 25.25C15.2862 25.25 15.2828 25.25 15.2793 25.25C15.2758 25.25 15.2723 25.25 15.2688 25.25C15.2653 25.25 15.2618 25.25 15.2582 25.25C15.2547 25.25 15.2512 25.25 15.2477 25.25C15.2441 25.25 15.2406 25.25 15.2371 25.25C15.2335 25.25 15.23 25.25 15.2264 25.25C15.2229 25.25 15.2193 25.25 15.2158 25.25C15.2122 25.25 15.2086 25.25 15.2051 25.25C15.2015 25.25 15.1979 25.25 15.1943 25.25C15.1907 25.25 15.1872 25.25 15.1836 25.25C15.18 25.25 15.1764 25.25 15.1728 25.25C15.1692 25.25 15.1655 25.25 15.1619 25.25C15.1583 25.25 15.1547 25.25 15.151 25.25C15.1474 25.25 15.1438 25.25 15.1401 25.25C15.1365 25.25 15.1328 25.25 15.1292 25.25C15.1255 25.25 15.1219 25.25 15.1182 25.25C15.1146 25.25 15.1109 25.25 15.1072 25.25C15.1035 25.25 15.0998 25.25 15.0962 25.25C15.0925 25.25 15.0888 25.25 15.0851 25.25C15.0814 25.25 15.0777 25.25 15.074 25.25C15.0703 25.25 15.0665 25.25 15.0628 25.25C15.0591 25.25 15.0554 25.25 15.0516 25.25C15.0479 25.25 15.0442 25.25 15.0404 25.25C15.0367 25.25 15.0329 25.25 15.0292 25.25C15.0254 25.25 15.0216 25.25 15.0179 25.25C15.0141 25.25 15.0103 25.25 15.0066 25.25C15.0028 25.25 14.999 25.25 14.9952 25.25C14.9914 25.25 14.9876 25.25 14.9838 25.25C14.98 25.25 14.9762 25.25 14.9724 25.25C14.9686 25.25 14.9648 25.25 14.9609 25.25C14.9571 25.25 14.9533 25.25 14.9494 25.25C14.9456 25.25 14.9418 25.25 14.9379 25.25C14.9341 25.25 14.9302 25.25 14.9264 25.25C14.9225 25.25 14.9186 25.25 14.9148 25.25C14.9109 25.25 14.907 25.25 14.9031 25.25C14.8993 25.25 14.8954 25.25 14.8915 25.25C14.8876 25.25 14.8837 25.25 14.8798 25.25C14.8759 25.25 14.872 25.25 14.868 25.25C14.8641 25.25 14.8602 25.25 14.8563 25.25C14.8523 25.25 14.8484 25.25 14.8445 25.25C14.8405 25.25 14.8366 25.25 14.8326 25.25C14.8287 25.25 14.8247 25.25 14.8208 25.25C14.8168 25.25 14.8128 25.25 14.8089 25.25C14.8049 25.25 14.8009 25.25 14.7969 25.25C14.7929 25.25 14.789 25.25 14.785 25.25C14.781 25.25 14.777 25.25 14.7729 25.25C14.7689 25.25 14.7649 25.25 14.7609 25.25C14.7569 25.25 14.7529 25.25 14.7488 25.25C14.7448 25.25 14.7408 25.25 14.7367 25.25C14.7327 25.25 14.7286 25.25 14.7246 25.25C14.7205 25.25 14.7165 25.25 14.7124 25.25C14.7083 25.25 14.7043 25.25 14.7002 25.25C14.6961 25.25 14.692 25.25 14.6879 25.25C14.6839 25.25 14.6798 25.25 14.6757 25.25C14.6716 25.25 14.6675 25.25 14.6633 25.25C14.6592 25.25 14.6551 25.25 14.651 25.25C14.6469 25.25 14.6427 25.25 14.6386 25.25C14.6345 25.25 14.6303 25.25 14.6262 25.25C14.622 25.25 14.6179 25.25 14.6137 25.25C14.6096 25.25 14.6054 25.25 14.6012 25.25C14.5971 25.25 14.5929 25.25 14.5887 25.25C14.5845 25.25 14.5804 25.25 14.5762 25.25C14.572 25.25 14.5678 25.25 14.5636 25.25C14.5594 25.25 14.5552 25.25 14.551 25.25C14.5467 25.25 14.5425 25.25 14.5383 25.25C14.5341 25.25 14.5298 25.25 14.5256 25.25C14.5214 25.25 14.5171 25.25 14.5129 25.25C14.5086 25.25 14.5044 25.25 14.5001 25.25C14.4959 25.25 14.4916 25.25 14.4873 25.25C14.483 25.25 14.4788 25.25 14.4745 25.25C14.4702 25.25 14.4659 25.25 14.4616 25.25C14.4573 25.25 14.453 25.25 14.4487 25.25C14.4444 25.25 14.4401 25.25 14.4358 25.25C14.4315 25.25 14.4271 25.25 14.4228 25.25C14.4185 25.25 14.4142 25.25 14.4098 25.25C14.4055 25.25 14.4011 25.25 14.3968 25.25C14.3924 25.25 14.3881 25.25 14.3837 25.25C14.3793 25.25 14.375 25.25 14.3706 25.25C14.3662 25.25 14.3619 25.25 14.3575 25.25C14.3531 25.25 14.3487 25.25 14.3443 25.25C14.3399 25.25 14.3355 25.25 14.3311 25.25C14.3267 25.25 14.3223 25.25 14.3178 25.25C14.3134 25.25 14.309 25.25 14.3046 25.25C14.3001 25.25 14.2957 25.25 14.2913 25.25C14.2868 25.25 14.2824 25.25 14.2779 25.25C14.2735 25.25 14.269 25.25 14.2645 25.25C14.2601 25.25 14.2556 25.25 14.2511 25.25C14.2466 25.25 14.2422 25.25 14.2377 25.25C14.2332 25.25 14.2287 25.25 14.2242 25.25C14.2197 25.25 14.2152 25.25 14.2107 25.25C14.2062 25.25 14.2016 25.25 14.1971 25.25C14.1926 25.25 14.1881 25.25 14.1835 25.25C14.179 25.25 14.1745 25.25 14.1699 25.25C14.1654 25.25 14.1608 25.25 14.1562 25.25C14.1517 25.25 14.1471 25.25 14.1426 25.25C14.138 25.25 14.1334 25.25 14.1288 25.25C14.1243 25.25 14.1197 25.25 14.1151 25.25C14.1105 25.25 14.1059 25.25 14.1013 25.25C14.0967 25.25 14.0921 25.25 14.0875 25.25C14.0828 25.25 14.0782 25.25 14.0736 25.25C14.069 25.25 14.0643 25.25 14.0597 25.25C14.0551 25.25 14.0504 25.25 14.0458 25.25C14.0411 25.25 14.0365 25.25 14.0318 25.25C14.0272 25.25 14.0225 25.25 14.0178 25.25C14.0131 25.25 14.0085 25.25 14.0038 25.25C13.9991 25.25 13.9944 25.25 13.9897 25.25C13.985 25.25 13.9803 25.25 13.9756 25.25C13.9709 25.25 13.9662 25.25 13.9615 25.25C13.9568 25.25 13.952 25.25 13.9473 25.25C13.9426 25.25 13.9378 25.25 13.9331 25.25C13.9284 25.25 13.9236 25.25 13.9189 25.25C13.9141 25.25 13.9094 25.25 13.9046 25.25C13.8998 25.25 13.8951 25.25 13.8903 25.25C13.8855 25.25 13.8807 25.25 13.8759 25.25C13.8712 25.25 13.8664 25.25 13.8616 25.25C13.8568 25.25 13.852 25.25 13.8472 25.25C13.8424 25.25 13.8375 25.25 13.8327 25.25C13.8279 25.25 13.8231 25.25 13.8182 25.25C13.8134 25.25 13.8086 25.25 13.8037 25.25C13.7989 25.25 13.794 25.25 13.7892 25.25C13.7843 25.25 13.7795 25.25 13.7746 25.25C13.7697 25.25 13.7649 25.25 13.76 25.25C13.7551 25.25 13.7502 25.25 13.7453 25.25C13.7404 25.25 13.7355 25.25 13.7306 25.25C13.7257 25.25 13.7208 25.25 13.7159 25.25C13.711 25.25 13.7061 25.25 13.7012 25.25C13.6962 25.25 13.6913 25.25 13.6864 25.25C13.6814 25.25 13.6765 25.25 13.6716 25.25C13.6666 25.25 13.6617 25.25 13.6567 25.25C13.6517 25.25 13.6468 25.25 13.6418 25.25C13.6368 25.25 13.6319 25.25 13.6269 25.25C13.6219 25.25 13.6169 25.25 13.6119 25.25C13.6069 25.25 13.6019 25.25 13.5969 25.25C13.5919 25.25 13.5869 25.25 13.5819 25.25C13.5769 25.25 13.5719 25.25 13.5668 25.25C13.5618 25.25 13.5568 25.25 13.5518 25.25C13.5467 25.25 13.5417 25.25 13.5366 25.25C13.5316 25.25 13.5265 25.25 13.5215 25.25C13.5164 25.25 13.5113 25.25 13.5063 25.25C13.5012 25.25 13.4961 25.25 13.491 25.25C13.4859 25.25 13.4808 25.25 13.4758 25.25C13.4707 25.25 13.4656 25.25 13.4604 25.25C13.4553 25.25 13.4502 25.25 13.4451 25.25C13.44 25.25 13.4349 25.25 13.4297 25.25C13.4246 25.25 13.4195 25.25 13.4143 25.25C13.4092 25.25 13.404 25.25 13.3989 25.25C13.3937 25.25 13.3886 25.25 13.3834 25.25C13.3783 25.25 13.3731 25.25 13.3679 25.25C13.3627 25.25 13.3576 25.25 13.3524 25.25C13.3472 25.25 13.342 25.25 13.3368 25.25C13.3316 25.25 13.3264 25.25 13.3212 25.25C13.316 25.25 13.3108 25.25 13.3055 25.25C13.3003 25.25 13.2951 25.25 13.2899 25.25C13.2846 25.25 13.2794 25.25 13.2741 25.25C13.2689 25.25 13.2636 25.25 13.2584 25.25C13.2531 25.25 13.2479 25.25 13.2426 25.25C13.2373 25.25 13.2321 25.25 13.2268 25.25C13.2215 25.25 13.2162 25.25 13.2109 25.25C13.2056 25.25 13.2004 25.25 13.1951 25.25C13.1898 25.25 13.1844 25.25 13.1791 25.25C13.1738 25.25 13.1685 25.25 13.1632 25.25C13.1579 25.25 13.1525 25.25 13.1472 25.25C13.1419 25.25 13.1365 25.25 13.1312 25.25C13.1258 25.25 13.1205 25.25 13.1151 25.25C13.1097 25.25 13.1044 25.25 13.099 25.25C13.0936 25.25 13.0883 25.25 13.0829 25.25C13.0775 25.25 13.0721 25.25 13.0667 25.25C13.0613 25.25 13.0559 25.25 13.0505 25.25C13.0451 25.25 13.0397 25.25 13.0343 25.25C13.0289 25.25 13.0235 25.25 13.018 25.25C13.0126 25.25 13.0072 25.25 13.0017 25.25C12.9963 25.25 12.9909 25.25 12.9854 25.25C12.98 25.25 12.9745 25.25 12.969 25.25C12.9636 25.25 12.9581 25.25 12.9526 25.25C12.9472 25.25 12.9417 25.25 12.9362 25.25C12.9307 25.25 12.9252 25.25 12.9197 25.25C12.9142 25.25 12.9087 25.25 12.9032 25.25C12.8977 25.25 12.8922 25.25 12.8867 25.25C12.8812 25.25 12.8756 25.25 12.8701 25.25C12.8646 25.25 12.859 25.25 12.8535 25.25C12.848 25.25 12.8424 25.25 12.8369 25.25C12.8313 25.25 12.8258 25.25 12.8202 25.25C12.8146 25.25 12.8091 25.25 12.8035 25.25C12.7979 25.25 12.7923 25.25 12.7867 25.25C12.7811 25.25 12.7756 25.25 12.77 25.25C12.7644 25.25 12.7588 25.25 12.7531 25.25C12.7475 25.25 12.7419 25.25 12.7363 25.25C12.7307 25.25 12.725 25.25 12.7194 25.25C12.7138 25.25 12.7081 25.25 12.7025 25.25C12.6969 25.25 12.6912 25.25 12.6855 25.25C12.6799 25.25 12.6742 25.25 12.6686 25.25C12.6629 25.25 12.6572 25.25 12.6515 25.25C12.6459 25.25 12.6402 25.25 12.6345 25.25C12.6288 25.25 12.6231 25.25 12.6174 25.25C12.6117 25.25 12.606 25.25 12.6003 25.25C12.5946 25.25 12.5888 25.25 12.5831 25.25C12.5774 25.25 12.5717 25.25 12.5659 25.25C12.5602 25.25 12.5545 25.25 12.5487 25.25C12.543 25.25 12.5372 25.25 12.5314 25.25C12.5257 25.25 12.5199 25.25 12.5142 25.25C12.5084 25.25 12.5026 25.25 12.4968 25.25C12.491 25.25 12.4853 25.25 12.4795 25.25C12.4737 25.25 12.4679 25.25 12.4621 25.25C12.4563 25.25 12.4504 25.25 12.4446 25.25C12.4388 25.25 12.433 25.25 12.4272 25.25C12.4213 25.25 12.4155 25.25 12.4097 25.25C12.4038 25.25 12.398 25.25 12.3921 25.25C12.3863 25.25 12.3804 25.25 12.3746 25.25C12.3687 25.25 12.3628 25.25 12.357 25.25C12.3511 25.25 12.3452 25.25 12.3393 25.25C12.3334 25.25 12.3275 25.25 12.3217 25.25C12.3158 25.25 12.3099 25.25 12.3039 25.25C12.298 25.25 12.2921 25.25 12.2862 25.25C12.2803 25.25 12.2744 25.25 12.2684 25.25C12.2625 25.25 12.2566 25.25 12.2506 25.25C12.2447 25.25 12.2387 25.25 12.2328 25.25C12.2268 25.25 12.2209 25.25 12.2149 25.25C12.2089 25.25 12.203 25.25 12.197 25.25C12.191 25.25 12.185 25.25 12.179 25.25C12.1731 25.25 12.1671 25.25 12.1611 25.25C12.1551 25.25 12.1491 25.25 12.143 25.25C12.137 25.25 12.131 25.25 12.125 25.25V27.25C12.131 27.25 12.137 27.25 12.143 27.25C12.1491 27.25 12.1551 27.25 12.1611 27.25C12.1671 27.25 12.1731 27.25 12.179 27.25C12.185 27.25 12.191 27.25 12.197 27.25C12.203 27.25 12.2089 27.25 12.2149 27.25C12.2209 27.25 12.2268 27.25 12.2328 27.25C12.2387 27.25 12.2447 27.25 12.2506 27.25C12.2566 27.25 12.2625 27.25 12.2684 27.25C12.2744 27.25 12.2803 27.25 12.2862 27.25C12.2921 27.25 12.298 27.25 12.3039 27.25C12.3099 27.25 12.3158 27.25 12.3217 27.25C12.3275 27.25 12.3334 27.25 12.3393 27.25C12.3452 27.25 12.3511 27.25 12.357 27.25C12.3628 27.25 12.3687 27.25 12.3746 27.25C12.3804 27.25 12.3863 27.25 12.3921 27.25C12.398 27.25 12.4038 27.25 12.4097 27.25C12.4155 27.25 12.4213 27.25 12.4272 27.25C12.433 27.25 12.4388 27.25 12.4446 27.25C12.4504 27.25 12.4563 27.25 12.4621 27.25C12.4679 27.25 12.4737 27.25 12.4795 27.25C12.4853 27.25 12.491 27.25 12.4968 27.25C12.5026 27.25 12.5084 27.25 12.5142 27.25C12.5199 27.25 12.5257 27.25 12.5314 27.25C12.5372 27.25 12.543 27.25 12.5487 27.25C12.5545 27.25 12.5602 27.25 12.5659 27.25C12.5717 27.25 12.5774 27.25 12.5831 27.25C12.5888 27.25 12.5946 27.25 12.6003 27.25C12.606 27.25 12.6117 27.25 12.6174 27.25C12.6231 27.25 12.6288 27.25 12.6345 27.25C12.6402 27.25 12.6459 27.25 12.6515 27.25C12.6572 27.25 12.6629 27.25 12.6686 27.25C12.6742 27.25 12.6799 27.25 12.6855 27.25C12.6912 27.25 12.6969 27.25 12.7025 27.25C12.7081 27.25 12.7138 27.25 12.7194 27.25C12.725 27.25 12.7307 27.25 12.7363 27.25C12.7419 27.25 12.7475 27.25 12.7531 27.25C12.7588 27.25 12.7644 27.25 12.77 27.25C12.7756 27.25 12.7811 27.25 12.7867 27.25C12.7923 27.25 12.7979 27.25 12.8035 27.25C12.8091 27.25 12.8146 27.25 12.8202 27.25C12.8258 27.25 12.8313 27.25 12.8369 27.25C12.8424 27.25 12.848 27.25 12.8535 27.25C12.859 27.25 12.8646 27.25 12.8701 27.25C12.8756 27.25 12.8812 27.25 12.8867 27.25C12.8922 27.25 12.8977 27.25 12.9032 27.25C12.9087 27.25 12.9142 27.25 12.9197 27.25C12.9252 27.25 12.9307 27.25 12.9362 27.25C12.9417 27.25 12.9472 27.25 12.9526 27.25C12.9581 27.25 12.9636 27.25 12.969 27.25C12.9745 27.25 12.98 27.25 12.9854 27.25C12.9909 27.25 12.9963 27.25 13.0017 27.25C13.0072 27.25 13.0126 27.25 13.018 27.25C13.0235 27.25 13.0289 27.25 13.0343 27.25C13.0397 27.25 13.0451 27.25 13.0505 27.25C13.0559 27.25 13.0613 27.25 13.0667 27.25C13.0721 27.25 13.0775 27.25 13.0829 27.25C13.0883 27.25 13.0936 27.25 13.099 27.25C13.1044 27.25 13.1097 27.25 13.1151 27.25C13.1205 27.25 13.1258 27.25 13.1312 27.25C13.1365 27.25 13.1419 27.25 13.1472 27.25C13.1525 27.25 13.1579 27.25 13.1632 27.25C13.1685 27.25 13.1738 27.25 13.1791 27.25C13.1844 27.25 13.1898 27.25 13.1951 27.25C13.2004 27.25 13.2056 27.25 13.2109 27.25C13.2162 27.25 13.2215 27.25 13.2268 27.25C13.2321 27.25 13.2373 27.25 13.2426 27.25C13.2479 27.25 13.2531 27.25 13.2584 27.25C13.2636 27.25 13.2689 27.25 13.2741 27.25C13.2794 27.25 13.2846 27.25 13.2899 27.25C13.2951 27.25 13.3003 27.25 13.3055 27.25C13.3108 27.25 13.316 27.25 13.3212 27.25C13.3264 27.25 13.3316 27.25 13.3368 27.25C13.342 27.25 13.3472 27.25 13.3524 27.25C13.3576 27.25 13.3627 27.25 13.3679 27.25C13.3731 27.25 13.3783 27.25 13.3834 27.25C13.3886 27.25 13.3937 27.25 13.3989 27.25C13.404 27.25 13.4092 27.25 13.4143 27.25C13.4195 27.25 13.4246 27.25 13.4297 27.25C13.4349 27.25 13.44 27.25 13.4451 27.25C13.4502 27.25 13.4553 27.25 13.4604 27.25C13.4656 27.25 13.4707 27.25 13.4758 27.25C13.4808 27.25 13.4859 27.25 13.491 27.25C13.4961 27.25 13.5012 27.25 13.5063 27.25C13.5113 27.25 13.5164 27.25 13.5215 27.25C13.5265 27.25 13.5316 27.25 13.5366 27.25C13.5417 27.25 13.5467 27.25 13.5518 27.25C13.5568 27.25 13.5618 27.25 13.5668 27.25C13.5719 27.25 13.5769 27.25 13.5819 27.25C13.5869 27.25 13.5919 27.25 13.5969 27.25C13.6019 27.25 13.6069 27.25 13.6119 27.25C13.6169 27.25 13.6219 27.25 13.6269 27.25C13.6319 27.25 13.6368 27.25 13.6418 27.25C13.6468 27.25 13.6517 27.25 13.6567 27.25C13.6617 27.25 13.6666 27.25 13.6716 27.25C13.6765 27.25 13.6814 27.25 13.6864 27.25C13.6913 27.25 13.6962 27.25 13.7012 27.25C13.7061 27.25 13.711 27.25 13.7159 27.25C13.7208 27.25 13.7257 27.25 13.7306 27.25C13.7355 27.25 13.7404 27.25 13.7453 27.25C13.7502 27.25 13.7551 27.25 13.76 27.25C13.7649 27.25 13.7697 27.25 13.7746 27.25C13.7795 27.25 13.7843 27.25 13.7892 27.25C13.794 27.25 13.7989 27.25 13.8037 27.25C13.8086 27.25 13.8134 27.25 13.8182 27.25C13.8231 27.25 13.8279 27.25 13.8327 27.25C13.8375 27.25 13.8424 27.25 13.8472 27.25C13.852 27.25 13.8568 27.25 13.8616 27.25C13.8664 27.25 13.8712 27.25 13.8759 27.25C13.8807 27.25 13.8855 27.25 13.8903 27.25C13.8951 27.25 13.8998 27.25 13.9046 27.25C13.9094 27.25 13.9141 27.25 13.9189 27.25C13.9236 27.25 13.9284 27.25 13.9331 27.25C13.9378 27.25 13.9426 27.25 13.9473 27.25C13.952 27.25 13.9568 27.25 13.9615 27.25C13.9662 27.25 13.9709 27.25 13.9756 27.25C13.9803 27.25 13.985 27.25 13.9897 27.25C13.9944 27.25 13.9991 27.25 14.0038 27.25C14.0085 27.25 14.0131 27.25 14.0178 27.25C14.0225 27.25 14.0272 27.25 14.0318 27.25C14.0365 27.25 14.0411 27.25 14.0458 27.25C14.0504 27.25 14.0551 27.25 14.0597 27.25C14.0643 27.25 14.069 27.25 14.0736 27.25C14.0782 27.25 14.0828 27.25 14.0875 27.25C14.0921 27.25 14.0967 27.25 14.1013 27.25C14.1059 27.25 14.1105 27.25 14.1151 27.25C14.1197 27.25 14.1243 27.25 14.1288 27.25C14.1334 27.25 14.138 27.25 14.1426 27.25C14.1471 27.25 14.1517 27.25 14.1562 27.25C14.1608 27.25 14.1654 27.25 14.1699 27.25C14.1745 27.25 14.179 27.25 14.1835 27.25C14.1881 27.25 14.1926 27.25 14.1971 27.25C14.2016 27.25 14.2062 27.25 14.2107 27.25C14.2152 27.25 14.2197 27.25 14.2242 27.25C14.2287 27.25 14.2332 27.25 14.2377 27.25C14.2422 27.25 14.2466 27.25 14.2511 27.25C14.2556 27.25 14.2601 27.25 14.2645 27.25C14.269 27.25 14.2735 27.25 14.2779 27.25C14.2824 27.25 14.2868 27.25 14.2913 27.25C14.2957 27.25 14.3001 27.25 14.3046 27.25C14.309 27.25 14.3134 27.25 14.3178 27.25C14.3223 27.25 14.3267 27.25 14.3311 27.25C14.3355 27.25 14.3399 27.25 14.3443 27.25C14.3487 27.25 14.3531 27.25 14.3575 27.25C14.3619 27.25 14.3662 27.25 14.3706 27.25C14.375 27.25 14.3793 27.25 14.3837 27.25C14.3881 27.25 14.3924 27.25 14.3968 27.25C14.4011 27.25 14.4055 27.25 14.4098 27.25C14.4142 27.25 14.4185 27.25 14.4228 27.25C14.4271 27.25 14.4315 27.25 14.4358 27.25C14.4401 27.25 14.4444 27.25 14.4487 27.25C14.453 27.25 14.4573 27.25 14.4616 27.25C14.4659 27.25 14.4702 27.25 14.4745 27.25C14.4788 27.25 14.483 27.25 14.4873 27.25C14.4916 27.25 14.4959 27.25 14.5001 27.25C14.5044 27.25 14.5086 27.25 14.5129 27.25C14.5171 27.25 14.5214 27.25 14.5256 27.25C14.5298 27.25 14.5341 27.25 14.5383 27.25C14.5425 27.25 14.5467 27.25 14.551 27.25C14.5552 27.25 14.5594 27.25 14.5636 27.25C14.5678 27.25 14.572 27.25 14.5762 27.25C14.5804 27.25 14.5845 27.25 14.5887 27.25C14.5929 27.25 14.5971 27.25 14.6012 27.25C14.6054 27.25 14.6096 27.25 14.6137 27.25C14.6179 27.25 14.622 27.25 14.6262 27.25C14.6303 27.25 14.6345 27.25 14.6386 27.25C14.6427 27.25 14.6469 27.25 14.651 27.25C14.6551 27.25 14.6592 27.25 14.6633 27.25C14.6675 27.25 14.6716 27.25 14.6757 27.25C14.6798 27.25 14.6839 27.25 14.6879 27.25C14.692 27.25 14.6961 27.25 14.7002 27.25C14.7043 27.25 14.7083 27.25 14.7124 27.25C14.7165 27.25 14.7205 27.25 14.7246 27.25C14.7286 27.25 14.7327 27.25 14.7367 27.25C14.7408 27.25 14.7448 27.25 14.7488 27.25C14.7529 27.25 14.7569 27.25 14.7609 27.25C14.7649 27.25 14.7689 27.25 14.7729 27.25C14.777 27.25 14.781 27.25 14.785 27.25C14.789 27.25 14.7929 27.25 14.7969 27.25C14.8009 27.25 14.8049 27.25 14.8089 27.25C14.8128 27.25 14.8168 27.25 14.8208 27.25C14.8247 27.25 14.8287 27.25 14.8326 27.25C14.8366 27.25 14.8405 27.25 14.8445 27.25C14.8484 27.25 14.8523 27.25 14.8563 27.25C14.8602 27.25 14.8641 27.25 14.868 27.25C14.872 27.25 14.8759 27.25 14.8798 27.25C14.8837 27.25 14.8876 27.25 14.8915 27.25C14.8954 27.25 14.8993 27.25 14.9031 27.25C14.907 27.25 14.9109 27.25 14.9148 27.25C14.9186 27.25 14.9225 27.25 14.9264 27.25C14.9302 27.25 14.9341 27.25 14.9379 27.25C14.9418 27.25 14.9456 27.25 14.9494 27.25C14.9533 27.25 14.9571 27.25 14.9609 27.25C14.9648 27.25 14.9686 27.25 14.9724 27.25C14.9762 27.25 14.98 27.25 14.9838 27.25C14.9876 27.25 14.9914 27.25 14.9952 27.25C14.999 27.25 15.0028 27.25 15.0066 27.25C15.0103 27.25 15.0141 27.25 15.0179 27.25C15.0216 27.25 15.0254 27.25 15.0292 27.25C15.0329 27.25 15.0367 27.25 15.0404 27.25C15.0442 27.25 15.0479 27.25 15.0516 27.25C15.0554 27.25 15.0591 27.25 15.0628 27.25C15.0665 27.25 15.0703 27.25 15.074 27.25C15.0777 27.25 15.0814 27.25 15.0851 27.25C15.0888 27.25 15.0925 27.25 15.0962 27.25C15.0998 27.25 15.1035 27.25 15.1072 27.25C15.1109 27.25 15.1146 27.25 15.1182 27.25C15.1219 27.25 15.1255 27.25 15.1292 27.25C15.1328 27.25 15.1365 27.25 15.1401 27.25C15.1438 27.25 15.1474 27.25 15.151 27.25C15.1547 27.25 15.1583 27.25 15.1619 27.25C15.1655 27.25 15.1692 27.25 15.1728 27.25C15.1764 27.25 15.18 27.25 15.1836 27.25C15.1872 27.25 15.1907 27.25 15.1943 27.25C15.1979 27.25 15.2015 27.25 15.2051 27.25C15.2086 27.25 15.2122 27.25 15.2158 27.25C15.2193 27.25 15.2229 27.25 15.2264 27.25C15.23 27.25 15.2335 27.25 15.2371 27.25C15.2406 27.25 15.2441 27.25 15.2477 27.25C15.2512 27.25 15.2547 27.25 15.2582 27.25C15.2618 27.25 15.2653 27.25 15.2688 27.25C15.2723 27.25 15.2758 27.25 15.2793 27.25C15.2828 27.25 15.2862 27.25 15.2897 27.25C15.2932 27.25 15.2967 27.25 15.3002 27.25C15.3036 27.25 15.3071 27.25 15.3105 27.25C15.314 27.25 15.3175 27.25 15.3209 27.25C15.3244 27.25 15.3278 27.25 15.3312 27.25C15.3347 27.25 15.3381 27.25 15.3415 27.25C15.3449 27.25 15.3484 27.25 15.3518 27.25C15.3552 27.25 15.3586 27.25 15.362 27.25C15.3654 27.25 15.3688 27.25 15.3722 27.25C15.3756 27.25 15.379 27.25 15.3823 27.25C15.3857 27.25 15.3891 27.25 15.3925 27.25C15.3958 27.25 15.3992 27.25 15.4025 27.25C15.4059 27.25 15.4092 27.25 15.4126 27.25C15.4159 27.25 15.4193 27.25 15.4226 27.25C15.4259 27.25 15.4293 27.25 15.4326 27.25C15.4359 27.25 15.4392 27.25 15.4425 27.25C15.4458 27.25 15.4491 27.25 15.4524 27.25C15.4557 27.25 15.459 27.25 15.4623 27.25C15.4656 27.25 15.4689 27.25 15.4722 27.25C15.4754 27.25 15.4787 27.25 15.482 27.25C15.4852 27.25 15.4885 27.25 15.4918 27.25C15.495 27.25 15.4983 27.25 15.5015 27.25C15.5047 27.25 15.508 27.25 15.5112 27.25C15.5144 27.25 15.5177 27.25 15.5209 27.25C15.5241 27.25 15.5273 27.25 15.5305 27.25C15.5337 27.25 15.5369 27.25 15.5401 27.25C15.5433 27.25 15.5465 27.25 15.5497 27.25C15.5529 27.25 15.556 27.25 15.5592 27.25C15.5624 27.25 15.5656 27.25 15.5687 27.25C15.5719 27.25 15.575 27.25 15.5782 27.25C15.5813 27.25 15.5845 27.25 15.5876 27.25C15.5908 27.25 15.5939 27.25 15.597 27.25C15.6001 27.25 15.6033 27.25 15.6064 27.25C15.6095 27.25 15.6126 27.25 15.6157 27.25C15.6188 27.25 15.6219 27.25 15.625 27.25C15.6281 27.25 15.6312 27.25 15.6343 27.25C15.6373 27.25 15.6404 27.25 15.6435 27.25C15.6466 27.25 15.6496 27.25 15.6527 27.25C15.6557 27.25 15.6588 27.25 15.6618 27.25C15.6649 27.25 15.6679 27.25 15.671 27.25C15.674 27.25 15.677 27.25 15.68 27.25C15.6831 27.25 15.6861 27.25 15.6891 27.25C15.6921 27.25 15.6951 27.25 15.6981 27.25C15.7011 27.25 15.7041 27.25 15.7071 27.25C15.7101 27.25 15.7131 27.25 15.7161 27.25C15.719 27.25 15.722 27.25 15.725 27.25C15.7279 27.25 15.7309 27.25 15.7339 27.25C15.7368 27.25 15.7398 27.25 15.7427 27.25C15.7456 27.25 15.7486 27.25 15.7515 27.25C15.7545 27.25 15.7574 27.25 15.7603 27.25C15.7632 27.25 15.7661 27.25 15.769 27.25C15.772 27.25 15.7749 27.25 15.7778 27.25C15.7807 27.25 15.7835 27.25 15.7864 27.25C15.7893 27.25 15.7922 27.25 15.7951 27.25C15.7979 27.25 15.8008 27.25 15.8037 27.25C15.8065 27.25 15.8094 27.25 15.8123 27.25C15.8151 27.25 15.818 27.25 15.8208 27.25C15.8236 27.25 15.8265 27.25 15.8293 27.25C15.8321 27.25 15.835 27.25 15.8378 27.25C15.8406 27.25 15.8434 27.25 15.8462 27.25C15.849 27.25 15.8518 27.25 15.8546 27.25C15.8574 27.25 15.8602 27.25 15.863 27.25C15.8658 27.25 15.8685 27.25 15.8713 27.25C15.8741 27.25 15.8768 27.25 15.8796 27.25C15.8824 27.25 15.8851 27.25 15.8879 27.25C15.8906 27.25 15.8934 27.25 15.8961 27.25C15.8988 27.25 15.9016 27.25 15.9043 27.25C15.907 27.25 15.9097 27.25 15.9125 27.25C15.9152 27.25 15.9179 27.25 15.9206 27.25C15.9233 27.25 15.926 27.25 15.9287 27.25C15.9314 27.25 15.9341 27.25 15.9367 27.25C15.9394 27.25 15.9421 27.25 15.9448 27.25C15.9474 27.25 15.9501 27.25 15.9528 27.25C15.9554 27.25 15.9581 27.25 15.9607 27.25C15.9634 27.25 15.966 27.25 15.9686 27.25C15.9713 27.25 15.9739 27.25 15.9765 27.25C15.9791 27.25 15.9818 27.25 15.9844 27.25C15.987 27.25 15.9896 27.25 15.9922 27.25C15.9948 27.25 15.9974 27.25 16 27.25C16.0026 27.25 16.0051 27.25 16.0077 27.25C16.0103 27.25 16.0129 27.25 16.0154 27.25C16.018 27.25 16.0206 27.25 16.0231 27.25C16.0257 27.25 16.0282 27.25 16.0308 27.25C16.0333 27.25 16.0358 27.25 16.0384 27.25C16.0409 27.25 16.0434 27.25 16.046 27.25C16.0485 27.25 16.051 27.25 16.0535 27.25C16.056 27.25 16.0585 27.25 16.061 27.25C16.0635 27.25 16.066 27.25 16.0685 27.25C16.071 27.25 16.0734 27.25 16.0759 27.25C16.0784 27.25 16.0809 27.25 16.0833 27.25C16.0858 27.25 16.0882 27.25 16.0907 27.25C16.0931 27.25 16.0956 27.25 16.098 27.25C16.1005 27.25 16.1029 27.25 16.1053 27.25C16.1078 27.25 16.1102 27.25 16.1126 27.25C16.115 27.25 16.1174 27.25 16.1198 27.25C16.1222 27.25 16.1246 27.25 16.127 27.25C16.1294 27.25 16.1318 27.25 16.1342 27.25C16.1366 27.25 16.139 27.25 16.1413 27.25C16.1437 27.25 16.1461 27.25 16.1484 27.25C16.1508 27.25 16.1532 27.25 16.1555 27.25C16.1578 27.25 16.1602 27.25 16.1625 27.25C16.1649 27.25 16.1672 27.25 16.1695 27.25C16.1718 27.25 16.1742 27.25 16.1765 27.25C16.1788 27.25 16.1811 27.25 16.1834 27.25C16.1857 27.25 16.188 27.25 16.1903 27.25C16.1926 27.25 16.1949 27.25 16.1972 27.25C16.1994 27.25 16.2017 27.25 16.204 27.25C16.2062 27.25 16.2085 27.25 16.2108 27.25C16.213 27.25 16.2153 27.25 16.2175 27.25C16.2198 27.25 16.222 27.25 16.2242 27.25C16.2265 27.25 16.2287 27.25 16.2309 27.25C16.2331 27.25 16.2354 27.25 16.2376 27.25C16.2398 27.25 16.242 27.25 16.2442 27.25C16.2464 27.25 16.2486 27.25 16.2508 27.25C16.253 27.25 16.2551 27.25 16.2573 27.25C16.2595 27.25 16.2617 27.25 16.2638 27.25C16.266 27.25 16.2682 27.25 16.2703 27.25C16.2725 27.25 16.2746 27.25 16.2768 27.25C16.2789 27.25 16.281 27.25 16.2832 27.25C16.2853 27.25 16.2874 27.25 16.2895 27.25C16.2917 27.25 16.2938 27.25 16.2959 27.25C16.298 27.25 16.3001 27.25 16.3022 27.25C16.3043 27.25 16.3064 27.25 16.3085 27.25C16.3106 27.25 16.3126 27.25 16.3147 27.25C16.3168 27.25 16.3189 27.25 16.3209 27.25C16.323 27.25 16.325 27.25 16.3271 27.25C16.3291 27.25 16.3312 27.25 16.3332 27.25C16.3353 27.25 16.3373 27.25 16.3393 27.25C16.3414 27.25 16.3434 27.25 16.3454 27.25C16.3474 27.25 16.3494 27.25 16.3514 27.25C16.3534 27.25 16.3554 27.25 16.3574 27.25C16.3594 27.25 16.3614 27.25 16.3634 27.25C16.3654 27.25 16.3673 27.25 16.3693 27.25C16.3713 27.25 16.3733 27.25 16.3752 27.25C16.3772 27.25 16.3791 27.25 16.3811 27.25C16.383 27.25 16.385 27.25 16.3869 27.25C16.3888 27.25 16.3908 27.25 16.3927 27.25C16.3946 27.25 16.3965 27.25 16.3985 27.25C16.4004 27.25 16.4023 27.25 16.4042 27.25C16.4061 27.25 16.408 27.25 16.4099 27.25C16.4118 27.25 16.4136 27.25 16.4155 27.25C16.4174 27.25 16.4193 27.25 16.4211 27.25C16.423 27.25 16.4249 27.25 16.4267 27.25C16.4286 27.25 16.4304 27.25 16.4323 27.25C16.4341 27.25 16.436 27.25 16.4378 27.25C16.4396 27.25 16.4415 27.25 16.4433 27.25C16.4451 27.25 16.4469 27.25 16.4487 27.25C16.4505 27.25 16.4523 27.25 16.4541 27.25C16.4559 27.25 16.4577 27.25 16.4595 27.25C16.4613 27.25 16.4631 27.25 16.4649 27.25C16.4666 27.25 16.4684 27.25 16.4702 27.25C16.4719 27.25 16.4737 27.25 16.4755 27.25C16.4772 27.25 16.479 27.25 16.4807 27.25C16.4824 27.25 16.4842 27.25 16.4859 27.25C16.4876 27.25 16.4894 27.25 16.4911 27.25C16.4928 27.25 16.4945 27.25 16.4962 27.25C16.4979 27.25 16.4996 27.25 16.5013 27.25C16.503 27.25 16.5047 27.25 16.5064 27.25C16.5081 27.25 16.5098 27.25 16.5114 27.25C16.5131 27.25 16.5148 27.25 16.5164 27.25C16.5181 27.25 16.5198 27.25 16.5214 27.25C16.5231 27.25 16.5247 27.25 16.5264 27.25C16.528 27.25 16.5296 27.25 16.5312 27.25C16.5329 27.25 16.5345 27.25 16.5361 27.25C16.5377 27.25 16.5393 27.25 16.5409 27.25C16.5426 27.25 16.5442 27.25 16.5457 27.25C16.5473 27.25 16.5489 27.25 16.5505 27.25C16.5521 27.25 16.5537 27.25 16.5552 27.25C16.5568 27.25 16.5584 27.25 16.5599 27.25C16.5615 27.25 16.563 27.25 16.5646 27.25C16.5661 27.25 16.5677 27.25 16.5692 27.25C16.5707 27.25 16.5723 27.25 16.5738 27.25C16.5753 27.25 16.5768 27.25 16.5784 27.25C16.5799 27.25 16.5814 27.25 16.5829 27.25C16.5844 27.25 16.5859 27.25 16.5874 27.25C16.5889 27.25 16.5903 27.25 16.5918 27.25C16.5933 27.25 16.5948 27.25 16.5962 27.25C16.5977 27.25 16.5992 27.25 16.6006 27.25C16.6021 27.25 16.6035 27.25 16.605 27.25C16.6064 27.25 16.6079 27.25 16.6093 27.25C16.6107 27.25 16.6122 27.25 16.6136 27.25C16.615 27.25 16.6164 27.25 16.6178 27.25C16.6192 27.25 16.6206 27.25 16.622 27.25C16.6234 27.25 16.6248 27.25 16.6262 27.25C16.6276 27.25 16.629 27.25 16.6304 27.25C16.6317 27.25 16.6331 27.25 16.6345 27.25C16.6358 27.25 16.6372 27.25 16.6385 27.25C16.6399 27.25 16.6412 27.25 16.6426 27.25C16.6439 27.25 16.6453 27.25 16.6466 27.25C16.6479 27.25 16.6493 27.25 16.6506 27.25C16.6519 27.25 16.6532 27.25 16.6545 27.25C16.6558 27.25 16.6571 27.25 16.6584 27.25C16.6597 27.25 16.661 27.25 16.6623 27.25C16.6636 27.25 16.6648 27.25 16.6661 27.25C16.6674 27.25 16.6687 27.25 16.6699 27.25C16.6712 27.25 16.6724 27.25 16.6737 27.25C16.6749 27.25 16.6762 27.25 16.6774 27.25C16.6787 27.25 16.6799 27.25 16.6811 27.25C16.6823 27.25 16.6836 27.25 16.6848 27.25C16.686 27.25 16.6872 27.25 16.6884 27.25C16.6896 27.25 16.6908 27.25 16.692 27.25C16.6932 27.25 16.6944 27.25 16.6956 27.25C16.6968 27.25 16.6979 27.25 16.6991 27.25C16.7003 27.25 16.7014 27.25 16.7026 27.25C16.7037 27.25 16.7049 27.25 16.706 27.25C16.7072 27.25 16.7083 27.25 16.7095 27.25C16.7106 27.25 16.7117 27.25 16.7129 27.25C16.714 27.25 16.7151 27.25 16.7162 27.25C16.7173 27.25 16.7184 27.25 16.7195 27.25C16.7206 27.25 16.7217 27.25 16.7228 27.25C16.7239 27.25 16.725 27.25 16.7261 27.25C16.7272 27.25 16.7282 27.25 16.7293 27.25C16.7304 27.25 16.7314 27.25 16.7325 27.25C16.7335 27.25 16.7346 27.25 16.7356 27.25C16.7367 27.25 16.7377 27.25 16.7387 27.25C16.7398 27.25 16.7408 27.25 16.7418 27.25C16.7428 27.25 16.7439 27.25 16.7449 27.25C16.7459 27.25 16.7469 27.25 16.7479 27.25C16.7489 27.25 16.7499 27.25 16.7509 27.25C16.7518 27.25 16.7528 27.25 16.7538 27.25C16.7548 27.25 16.7557 27.25 16.7567 27.25C16.7577 27.25 16.7586 27.25 16.7596 27.25C16.7605 27.25 16.7615 27.25 16.7624 27.25C16.7634 27.25 16.7643 27.25 16.7652 27.25C16.7662 27.25 16.7671 27.25 16.768 27.25C16.7689 27.25 16.7698 27.25 16.7707 27.25C16.7716 27.25 16.7725 27.25 16.7734 27.25C16.7743 27.25 16.7752 27.25 16.7761 27.25C16.777 27.25 16.7779 27.25 16.7787 27.25C16.7796 27.25 16.7805 27.25 16.7813 27.25C16.7822 27.25 16.7831 27.25 16.7839 27.25C16.7848 27.25 16.7856 27.25 16.7864 27.25C16.7873 27.25 16.7881 27.25 16.7889 27.25C16.7898 27.25 16.7906 27.25 16.7914 27.25C16.7922 27.25 16.793 27.25 16.7938 27.25C16.7946 27.25 16.7954 27.25 16.7962 27.25C16.797 27.25 16.7978 27.25 16.7986 27.25C16.7994 27.25 16.8001 27.25 16.8009 27.25C16.8017 27.25 16.8024 27.25 16.8032 27.25C16.8039 27.25 16.8047 27.25 16.8054 27.25C16.8062 27.25 16.8069 27.25 16.8077 27.25C16.8084 27.25 16.8091 27.25 16.8099 27.25C16.8106 27.25 16.8113 27.25 16.812 27.25C16.8127 27.25 16.8134 27.25 16.8141 27.25C16.8148 27.25 16.8155 27.25 16.8162 27.25C16.8169 27.25 16.8176 27.25 16.8183 27.25C16.8189 27.25 16.8196 27.25 16.8203 27.25C16.8209 27.25 16.8216 27.25 16.8223 27.25C16.8229 27.25 16.8236 27.25 16.8242 27.25C16.8249 27.25 16.8255 27.25 16.8261 27.25C16.8268 27.25 16.8274 27.25 16.828 27.25C16.8286 27.25 16.8292 27.25 16.8298 27.25C16.8305 27.25 16.8311 27.25 16.8317 27.25C16.8323 27.25 16.8328 27.25 16.8334 27.25C16.834 27.25 16.8346 27.25 16.8352 27.25C16.8357 27.25 16.8363 27.25 16.8369 27.25C16.8374 27.25 16.838 27.25 16.8386 27.25C16.8391 27.25 16.8397 27.25 16.8402 27.25C16.8407 27.25 16.8413 27.25 16.8418 27.25C16.8423 27.25 16.8428 27.25 16.8434 27.25C16.8439 27.25 16.8444 27.25 16.8449 27.25C16.8454 27.25 16.8459 27.25 16.8464 27.25C16.8469 27.25 16.8474 27.25 16.8479 27.25C16.8484 27.25 16.8488 27.25 16.8493 27.25C16.8498 27.25 16.8502 27.25 16.8507 27.25C16.8512 27.25 16.8516 27.25 16.8521 27.25C16.8525 27.25 16.853 27.25 16.8534 27.25C16.8538 27.25 16.8543 27.25 16.8547 27.25C16.8551 27.25 16.8555 27.25 16.8559 27.25C16.8564 27.25 16.8568 27.25 16.8572 27.25C16.8576 27.25 16.858 27.25 16.8584 27.25C16.8588 27.25 16.8591 27.25 16.8595 27.25C16.8599 27.25 16.8603 27.25 16.8606 27.25C16.861 27.25 16.8614 27.25 16.8617 27.25C16.8621 27.25 16.8624 27.25 16.8628 27.25C16.8631 27.25 16.8635 27.25 16.8638 27.25C16.8641 27.25 16.8645 27.25 16.8648 27.25C16.8651 27.25 16.8654 27.25 16.8658 27.25C16.8661 27.25 16.8664 27.25 16.8667 27.25C16.867 27.25 16.8673 27.25 16.8676 27.25C16.8678 27.25 16.8681 27.25 16.8684 27.25C16.8687 27.25 16.8689 27.25 16.8692 27.25C16.8695 27.25 16.8697 27.25 16.87 27.25C16.8702 27.25 16.8705 27.25 16.8707 27.25C16.871 27.25 16.8712 27.25 16.8715 27.25C16.8717 27.25 16.8719 27.25 16.8721 27.25C16.8723 27.25 16.8726 27.25 16.8728 27.25C16.873 27.25 16.8732 27.25 16.8734 27.25C16.8736 27.25 16.8738 27.25 16.874 27.25C16.8741 27.25 16.8743 27.25 16.8745 27.25C16.8747 27.25 16.8748 27.25 16.875 27.25V25.25ZM31.75 33.8125L30.7499 33.8125L30.7501 33.8226L31.75 33.8125ZM34.5625 6.5L33.7942 5.85979L33.7885 5.86676L34.5625 6.5ZM44.0625 1.9375H45.0625V0.926571L44.0516 0.937559L44.0625 1.9375ZM44.0625 8.875L44.0817 9.87482L45.0625 9.85595V8.875H44.0625ZM39.1875 12.375L38.2834 11.9476L38.2784 11.9582L38.2737 11.9689L39.1875 12.375ZM42.1875 38.8125L42.6133 37.9077L42.6086 37.9055L42.1875 38.8125ZM44 39.3125H45V38.3125H44V39.3125ZM44 46.3125V47.3125H45V46.3125H44ZM36.875 43.75L36.2797 44.5536L36.2911 44.5618L36.875 43.75ZM47.4375 46.3125H46.4375V47.3125H47.4375V46.3125ZM47.4375 39.3125V38.3125H46.4375V39.3125H47.4375ZM50.8125 37.8125L51.4633 38.5718L51.4725 38.5639L51.4815 38.5558L50.8125 37.8125ZM52.75 33.8125L53.7496 33.8395L53.75 33.826V33.8125H52.75ZM51.125 10.625L50.3912 11.3044L50.3922 11.3055L51.125 10.625ZM47.4375 8.875H46.4375V9.84602L47.4081 9.87457L47.4375 8.875ZM47.4375 1.9375V0.9375H46.4375V1.9375H47.4375ZM57.5625 7.375L58.3817 6.80154L58.3813 6.80091L57.5625 7.375ZM53.5625 44.4375L54.0622 45.3037L54.0684 45.3001L54.0744 45.2965L53.5625 44.4375ZM32.75 33.8125V13.25H30.75V33.8125H32.75ZM32.75 13.25C32.75 11.3406 33.5577 9.30725 35.3365 7.13324L33.7885 5.86676C31.8173 8.27608 30.75 10.7427 30.75 13.25H32.75ZM35.3307 7.14018C37.6472 4.36042 40.5392 2.97586 44.0734 2.93744L44.0516 0.937559C39.9191 0.982478 36.4778 2.63958 33.7943 5.85982L35.3307 7.14018ZM43.0625 1.9375V8.875H45.0625V1.9375H43.0625ZM44.0433 7.87518C42.775 7.89957 41.6265 8.25745 40.6355 8.96893C39.6531 9.6743 38.8786 10.6885 38.2834 11.9476L40.0916 12.8024C40.5797 11.7698 41.1594 11.0549 41.802 10.5936C42.436 10.1384 43.1833 9.89209 44.0817 9.87482L44.0433 7.87518ZM38.2737 11.9689C37.9155 12.7748 37.6875 13.5484 37.6875 14.25H39.6875C39.6875 13.9516 39.7929 13.4752 40.1013 12.7811L38.2737 11.9689ZM37.6875 14.25V33.8125H39.6875V14.25H37.6875ZM37.6875 33.8125C37.6875 35.1199 38.0299 36.3043 38.7433 37.3235C39.451 38.3345 40.4816 39.123 41.7664 39.7195L42.6086 37.9055C41.5601 37.4187 40.8406 36.8321 40.3817 36.1765C39.9285 35.529 39.6875 34.7551 39.6875 33.8125H37.6875ZM41.7617 39.7173C42.5357 40.0815 43.2929 40.3125 44 40.3125V38.3125C43.7071 38.3125 43.256 38.2101 42.6133 37.9077L41.7617 39.7173ZM43 39.3125V46.3125H45V39.3125H43ZM44 45.3125C41.879 45.3125 39.7038 44.553 37.4589 42.9382L36.2911 44.5618C38.7962 46.3637 41.371 47.3125 44 47.3125V45.3125ZM37.4702 42.9464C34.3416 40.6289 32.7884 37.6075 32.7499 33.8024L30.7501 33.8226C30.7949 38.2675 32.6584 41.8711 36.2798 44.5536L37.4702 42.9464ZM48.4375 46.3125V39.3125H46.4375V46.3125H48.4375ZM47.4375 40.3125C48.8425 40.3125 50.1903 39.6629 51.4633 38.5718L50.1617 37.0532C49.1014 37.9621 48.1992 38.3125 47.4375 38.3125V40.3125ZM51.4815 38.5558C52.9147 37.2659 53.6999 35.6815 53.7496 33.8395L51.7504 33.7855C51.7168 35.0268 51.2103 36.1091 50.1435 37.0692L51.4815 38.5558ZM53.75 33.8125V14.25H51.75V33.8125H53.75ZM53.75 14.25C53.75 12.684 53.0641 11.2436 51.8578 9.94455L50.3922 11.3055C51.3526 12.3397 51.75 13.316 51.75 14.25H53.75ZM51.8588 9.94559C50.6513 8.64151 49.1752 7.92567 47.4669 7.87543L47.4081 9.87457C48.5332 9.90766 49.5154 10.3585 50.3912 11.3044L51.8588 9.94559ZM48.4375 8.875V1.9375H46.4375V8.875H48.4375ZM47.4375 2.9375C51.3002 2.9375 54.3777 4.57462 56.7437 7.94909L58.3813 6.80091C55.664 2.92538 51.9914 0.9375 47.4375 0.9375V2.9375ZM56.7433 7.94846C58.1282 9.92692 58.75 11.6874 58.75 13.25H60.75C60.75 11.1459 59.9135 8.98975 58.3817 6.80154L56.7433 7.94846ZM58.75 13.25V33.8125H60.75V13.25H58.75ZM58.75 33.8125C58.75 38.069 56.8871 41.2921 53.0506 43.5785L54.0744 45.2965C58.4879 42.6663 60.75 38.806 60.75 33.8125H58.75ZM53.0628 43.5713C51.0029 44.7597 49.1331 45.3125 47.4375 45.3125V47.3125C49.5752 47.3125 51.7887 46.6153 54.0622 45.3037L53.0628 43.5713ZM64.75 46H63.75V47H64.75V46ZM64.75 2.25V1.25H63.75V2.25H64.75ZM71.75 2.25H72.75V1.25H71.75V2.25ZM71.75 46V47H72.75V46H71.75ZM74.9375 27.5625H73.9375V28.5625H74.9375V27.5625ZM74.9375 21.3125V20.3125H73.9375V21.3125H74.9375ZM84.4375 16.125L83.4436 16.0146L83.4433 16.0172L84.4375 16.125ZM79.75 8.875L79.9436 7.89393L79.9176 7.8888L79.8914 7.88505L79.75 8.875ZM74.9375 8.75H73.9375V9.75H74.9375V8.75ZM74.9375 2.25V1.25H73.9375V2.25H74.9375ZM78.75 2.25L78.7726 1.25025L78.7613 1.25H78.75V2.25ZM89.9375 8.4375L90.8408 8.00844L90.8393 8.00538L89.9375 8.4375ZM91.125 14.1875L92.125 14.1965V14.1875H91.125ZM86.875 24.25L86.2769 23.4486L85.0595 24.3571L86.3753 25.1162L86.875 24.25ZM91 30.9375L91.9884 30.7854L91.9863 30.772L91.9839 30.7586L91 30.9375ZM91.1875 32.4375L92.1845 32.3594L92.1834 32.347L91.1875 32.4375ZM92.25 46V47H93.3314L93.2469 45.9219L92.25 46ZM85.75 46L84.7535 46.084L84.8307 47H85.75V46ZM84.8125 34.875L85.809 34.791L85.808 34.7802L84.8125 34.875ZM82 28.25L82.5111 27.3905L82.4798 27.3719L82.4472 27.3556L82 28.25ZM65.75 46V2.25H63.75V46H65.75ZM64.75 3.25H71.75V1.25H64.75V3.25ZM70.75 2.25V46H72.75V2.25H70.75ZM71.75 45H64.75V47H71.75V45ZM75.9375 27.5625V21.3125H73.9375V27.5625H75.9375ZM74.9375 22.3125H78.4375V20.3125H74.9375V22.3125ZM78.4375 22.3125C80.4009 22.3125 82.0709 21.8437 83.3103 20.7721C84.5557 19.6953 85.2257 18.1319 85.4317 16.2328L83.4433 16.0172C83.2743 17.5764 82.7568 18.6068 82.0022 19.2592C81.2416 19.9167 80.0991 20.3125 78.4375 20.3125V22.3125ZM85.4314 16.2354C85.4766 15.8285 85.5 15.4372 85.5 15.0625H83.5C83.5 15.3545 83.4817 15.6715 83.4436 16.0146L85.4314 16.2354ZM85.5 15.0625C85.5 13.1679 85.0712 11.5394 84.1057 10.2817C83.1327 9.01426 81.7056 8.24169 79.9436 7.89393L79.5564 9.85607C80.961 10.1333 81.9089 10.7045 82.5193 11.4996C83.1371 12.3044 83.5 13.4571 83.5 15.0625H85.5ZM79.8914 7.88505C79.2585 7.79464 78.607 7.75 77.9375 7.75V9.75C78.518 9.75 79.0748 9.7887 79.6086 9.86495L79.8914 7.88505ZM77.9375 7.75H74.9375V9.75H77.9375V7.75ZM75.9375 8.75V2.25H73.9375V8.75H75.9375ZM74.9375 3.25H78.75V1.25H74.9375V3.25ZM78.7274 3.24975C84.0048 3.36878 87.3252 5.29997 89.0357 8.86962L90.8393 8.00538C88.7164 3.57503 84.5786 1.38122 78.7726 1.25025L78.7274 3.24975ZM89.0342 8.86656C89.752 10.3777 90.125 12.1436 90.125 14.1875H92.125C92.125 11.8981 91.7063 9.83059 90.8408 8.00844L89.0342 8.86656ZM90.125 14.1785C90.0852 18.602 88.7409 21.6097 86.2769 23.4486L87.4731 25.0514C90.5924 22.7236 92.0815 19.023 92.125 14.1965L90.125 14.1785ZM86.3753 25.1162C88.2149 26.1775 89.4683 28.1032 90.0161 31.1164L91.9839 30.7586C91.365 27.3551 89.8684 24.8225 87.3747 23.3838L86.3753 25.1162ZM90.0116 31.0896C90.0924 31.6145 90.1521 32.0937 90.1916 32.528L92.1834 32.347C92.1395 31.8646 92.0743 31.3438 91.9884 30.7854L90.0116 31.0896ZM90.1906 32.5156L91.2531 46.0781L93.2469 45.9219L92.1844 32.3594L90.1906 32.5156ZM92.25 45H85.75V47H92.25V45ZM86.7465 45.916L85.809 34.791L83.816 34.959L84.7535 46.084L86.7465 45.916ZM85.808 34.7802C85.4712 31.2434 84.5021 28.5743 82.5111 27.3905L81.4889 29.1095C82.5812 29.759 83.4872 31.5066 83.817 34.9698L85.808 34.7802ZM82.4472 27.3556C81.3526 26.8083 80.0421 26.5625 78.5625 26.5625V28.5625C79.8329 28.5625 80.8141 28.7751 81.5528 29.1444L82.4472 27.3556ZM78.5625 26.5625H74.9375V28.5625H78.5625V26.5625ZM94.75 9.0625H93.75V10.0625H94.75V9.0625ZM94.75 2.25V1.25H93.75V2.25H94.75ZM121.812 2.25H122.812V1.25H121.812V2.25ZM121.812 9.0625V10.0625H122.812V9.0625H121.812ZM111.812 9.0625V8.0625H110.812V9.0625H111.812ZM111.812 46V47H112.812V46H111.812ZM104.812 46H103.812V47H104.812V46ZM104.812 9.0625H105.812V8.0625H104.812V9.0625ZM95.75 9.0625V2.25H93.75V9.0625H95.75ZM94.75 3.25H121.812V1.25H94.75V3.25ZM120.812 2.25V9.0625H122.812V2.25H120.812ZM121.812 8.0625H111.812V10.0625H121.812V8.0625ZM110.812 9.0625V46H112.812V9.0625H110.812ZM111.812 45H104.812V47H111.812V45ZM105.812 46V9.0625H103.812V46H105.812ZM104.812 8.0625H94.75V10.0625H104.812V8.0625ZM125.438 46H124.438V47H125.438V46ZM125.438 2.25V1.25H124.438V2.25H125.438ZM148.188 2.25H149.188V1.25H148.188V2.25ZM148.188 9.125V10.125H149.188V9.125H148.188ZM132.438 9.125V8.125H131.438V9.125H132.438ZM132.438 20.75H131.438V21.75H132.438V20.75ZM142.312 20.75H143.312V19.75H142.312V20.75ZM142.312 27.75V28.75H143.312V27.75H142.312ZM132.438 27.75V26.75H131.438V27.75H132.438ZM132.438 39.0625H131.438V40.0625H132.438V39.0625ZM148.188 39.0625H149.188V38.0625H148.188V39.0625ZM148.188 46V47H149.188V46H148.188ZM126.438 46V2.25H124.438V46H126.438ZM125.438 3.25H148.188V1.25H125.438V3.25ZM147.188 2.25V9.125H149.188V2.25H147.188ZM148.188 8.125H132.438V10.125H148.188V8.125ZM131.438 9.125V20.75H133.438V9.125H131.438ZM132.438 21.75H142.312V19.75H132.438V21.75ZM141.312 20.75V27.75H143.312V20.75H141.312ZM142.312 26.75H132.438V28.75H142.312V26.75ZM131.438 27.75V39.0625H133.438V27.75H131.438ZM132.438 40.0625H148.188V38.0625H132.438V40.0625ZM147.188 39.0625V46H149.188V39.0625H147.188ZM148.188 45H125.438V47H148.188V45ZM153.25 46H152.25V47H153.25V46ZM153.25 13.375V12.375H152.25V13.375H153.25ZM153.75 13.375L154.599 12.8464L154.305 12.375H153.75V13.375ZM160.25 23.8125H161.25V23.5266L161.099 23.2839L160.25 23.8125ZM160.25 46V47H161.25V46H160.25ZM153.25 6.75H152.25V7.03587L152.401 7.27854L153.25 6.75ZM153.25 2.25V1.25H152.25V2.25H153.25ZM159.062 2.25L159.911 1.72122L159.618 1.25H159.062V2.25ZM181.062 37.5625H182.062V37.2765L181.911 37.0337L181.062 37.5625ZM181.062 46V47H182.062V46H181.062ZM177.688 46L176.839 46.5285L177.132 47H177.688V46ZM174.062 20.5H173.062V20.7859L173.214 21.0286L174.062 20.5ZM174.062 2.25V1.25H173.062V2.25H174.062ZM181.062 2.25H182.062V1.25H181.062V2.25ZM181.062 30.9375V31.9375H182.062V30.9375H181.062ZM180.562 30.9375L179.714 31.4661L180.007 31.9375H180.562V30.9375ZM154.25 46V13.375H152.25V46H154.25ZM153.25 14.375H153.75V12.375H153.25V14.375ZM152.901 13.9036L159.401 24.3411L161.099 23.2839L154.599 12.8464L152.901 13.9036ZM159.25 23.8125V46H161.25V23.8125H159.25ZM160.25 45H153.25V47H160.25V45ZM154.25 6.75V2.25H152.25V6.75H154.25ZM153.25 3.25H159.062V1.25H153.25V3.25ZM158.214 2.77878L180.214 38.0913L181.911 37.0337L159.911 1.72122L158.214 2.77878ZM180.062 37.5625V46H182.062V37.5625H180.062ZM181.062 45H177.688V47H181.062V45ZM178.536 45.4715L154.099 6.22146L152.401 7.27854L176.839 46.5285L178.536 45.4715ZM175.062 20.5V2.25H173.062V20.5H175.062ZM174.062 3.25H181.062V1.25H174.062V3.25ZM180.062 2.25V30.9375H182.062V2.25H180.062ZM181.062 29.9375H180.562V31.9375H181.062V29.9375ZM181.411 30.4089L174.911 19.9714L173.214 21.0286L179.714 31.4661L181.411 30.4089Z" fill="black"/>
</svg>
